<svg id="Layer_1" data-name="Layer 1" xmlns="http://www.w3.org/2000/svg" viewBox="0 0 499.49 491.01"><defs><style>.cls-1{fill:#371e0e;}.cls-2{fill:#fff0cd;}.cls-3{fill:#ffefcd;}.cls-4{fill:#1a0e0a;}.cls-5{fill:#1e110d;}.cls-6{fill:#1f120d;}.cls-7{fill:#1f1511;}.cls-8{fill:#261911;}.cls-9{fill:#221711;}.cls-10{fill:#f8f3e8;}.cls-11{fill:#f8f2e5;}.cls-12{fill:#9c5c26;}.cls-13{fill:#434140;}.cls-14{fill:#5e5e5e;}.cls-15{fill:#fff8e8;}.cls-16{fill:#ffefcc;}.cls-17{fill:#ef3d2a;}.cls-18{fill:#68a143;}.cls-19{fill:#68a243;}.cls-20{fill:#d7d7d5;}.cls-21{fill:#fff1d0;}.cls-22{fill:#8b4e21;}.cls-23{fill:#4d7536;}.cls-24{fill:#4c7536;}.cls-25{fill:#8c4f21;}.cls-26{fill:#fdb940;}.cls-27{fill:#f0a328;}.cls-28{fill:#1b0f0a;}.cls-29{fill:#1b100a;}.cls-30{fill:#20130c;}.cls-31{fill:#1e130c;}.cls-32{fill:#1f130c;}.cls-33{fill:#21150c;}.cls-34{fill:#21130e;}.cls-35{fill:#211207;}.cls-36{fill:#f8f6f3;}.cls-37{fill:#f9f4e5;}.cls-38{fill:#22160e;}.cls-39{fill:#f9f4e6;}.cls-40{fill:#2a4042;}.cls-41{fill:#26180f;}.cls-42{fill:#f6d44c;}.cls-43{fill:#f8f2e4;}.cls-44{fill:#faf5eb;}.cls-45{fill:#f8f2e6;}.cls-46{fill:#24170e;}.cls-47{fill:#25170d;}.cls-48{fill:#b1672c;}.cls-49{fill:#73b542;}.cls-50{fill:#fdf9f0;}.cls-51{fill:#f7f2e4;}.cls-52{fill:#b0672b;}.cls-53{fill:#f9f5e9;}.cls-54{fill:#f7f1e4;}.cls-55{fill:#71b343;}.cls-56{fill:#f5efe4;}.cls-57{fill:#ae662a;}.cls-58{fill:#f4eee0;}.cls-59{fill:#f7f1e2;}.cls-60{fill:#72b743;}.cls-61{fill:#f9f3ea;}.cls-62{fill:#f7f1e5;}.cls-63{fill:#71b643;}.cls-64{fill:#ae652a;}.cls-65{fill:#e8e7e6;}.cls-66{fill:#71b443;}.cls-67{fill:#72b643;}.cls-68{fill:#b1692c;}.cls-69{fill:#72b543;}.cls-70{fill:#6db344;}.cls-71{fill:#ac642a;}.cls-72{fill:#ad652b;}.cls-73{fill:#f6efe1;}.cls-74{fill:#ae662b;}.cls-75{fill:#eae9e7;}.cls-76{fill:#6a7279;}.cls-77{fill:#fdf8ea;}.cls-78{fill:#af662a;}.cls-79{fill:#af662b;}.cls-80{fill:#70b543;}.cls-81{fill:#73b843;}.cls-82{fill:#f3ba33;}.cls-83{fill:#f6efdf;}.cls-84{fill:#ad662b;}.cls-85{fill:#b66a2d;}.cls-86{fill:#b76b2c;}.cls-87{fill:#f6efe0;}.cls-88{fill:#fcf8eb;}.cls-89{fill:#f8d64c;}.cls-90{fill:#b96c2e;}.cls-91{fill:#fcf7eb;}.cls-92{fill:#454a4f;}.cls-93{fill:#b76b2e;}.cls-94{fill:#f0b833;}.cls-95{fill:#fffcf0;}.cls-96{fill:#bb6d2d;}.cls-97{fill:#f5d44c;}.cls-98{fill:#f8f2e7;}.cls-99{fill:#f9f4e7;}.cls-100{fill:#f8f2e3;}.cls-101{fill:#b86b2d;}.cls-102{fill:#edc847;}.cls-103{fill:#79c143;}.cls-104{fill:#fcf7e9;}.cls-105{fill:#b2682b;}.cls-106{fill:#b96b2d;}.cls-107{fill:#71b844;}.cls-108{fill:#70b844;}.cls-109{fill:#b56a2d;}.cls-110{fill:#b56a2c;}.cls-111{fill:#f0493e;}.cls-112{fill:#b4692c;}.cls-113{fill:#70b944;}.cls-114{fill:#faf4e5;}.cls-115{fill:#f7f2e5;}.cls-116{fill:#f1e9da;}.cls-117{fill:#faf6ec;}.cls-118{fill:#f9f4e9;}.cls-119{fill:#f6f0e3;}.cls-120{fill:#f7f2e7;}.cls-121{fill:#f2ebdd;}.cls-122{fill:#f7f2e6;}.cls-123{fill:#f1ecdf;}.cls-124{fill:#f8f4ea;}.cls-125{fill:#f6f0e6;}.cls-126{fill:#f3edde;}.cls-127{fill:#faf9f6;}.cls-128{fill:#282727;}.cls-129{fill:#222021;}.cls-130{fill:#294142;}.cls-131{fill:#1e1d1d;}.cls-132{fill:#282725;}.cls-133{fill:#2d2b29;}.cls-134{fill:#2c2a2a;}.cls-135{fill:#292726;}.cls-136{fill:#201e20;}.cls-137{fill:#252223;}.cls-138{fill:#f8f3e6;}.cls-139{fill:#f9f4e8;}.cls-140{fill:#f9f2e3;}.cls-141{fill:#191818;}.cls-142{fill:#f9f4ea;}.cls-143{fill:#f6d74d;}.cls-144{fill:#f4d34a;}</style></defs><path class="cls-1" d="M121.72,201.25c-5.3-7.73-9.45-16-11.32-25.23-.56-2.79-.85-5.57,1.82-7.48s5.09-1.26,7.62.4c2,1.33,4.27,2.34,6.41,3.49a2.62,2.62,0,0,0-.19.46s.1.13.18.16c5.85,2.82,12.17,3.9,18.53,4.34,11.71.83,22.85-1.89,33.65-6.22.28-.11,1.35,0,.68-1L195.29,163l0,.19c1.24,1,2.31,0,3.32-.41A108.3,108.3,0,0,1,247,157a84.18,84.18,0,0,1,24.85,6.53c.79.34,1.57,1.18,2.49.24l6.61,3.26a150.4,150.4,0,0,1,12.79,9.24l8.19,8c4.53,5.67,8.74,11.58,12.75,17.63.09,2,1.6,1.58,2.81,1.68l-2.29,1.09c6.55-.7,12.34-1.28,18.12-2,8.4-1,16.8-2,25.18-3.14,2.93-.4,6-.11,8.75-1.62.18-.4.52-.8.52-1.21.09-6,.76-12.07,1.08-18.1.32-6.22.9-12.44,1.06-18.65.23-9.09,1.18-18.13,1.2-27.22,0-1.48.34-2.91.46-4.36.15-1.66.87-1.42,1.95-1.12,7.32,2,14.71,3.84,21.88,6.39.84.3,1.8,1.21,2.81.23a223.1,223.1,0,0,1,70.12,39.76c1.14,1,2.2,2.38,4,1.2.69.68,1.33.24,2-.06a69.65,69.65,0,0,1,36.28-5.13c13.59,1.57,26.17,6.09,38.29,12.15,3,1.48,3.72,4,2.49,7.22-.28.74-.95,1.44-.13,2.25-5.72,12.32-11.34,24.7-19.85,35.45a73.54,73.54,0,0,1-6,6.81c-1.39,1.35-1.57,2.27-.55,4A250.26,250.26,0,0,1,543,275.9c-1,1-.09,2,.22,2.78a229.72,229.72,0,0,1,10.44,38.55c.77,4.09.89,8.29,2.15,12.29.55,6.74,1.44,13.47,1.59,20.22.32,15.13.23,30.26-2.1,45.29a290.51,290.51,0,0,1-6.9,33.55c-.53,1.9-2.12,3.77-1,6A241.73,241.73,0,0,1,504.51,516c-31.4,39.14-71.11,66.4-118.52,82.59a2.34,2.34,0,0,1-.53.08c-1.18-1.05-2.29-.09-3.35.23a201.71,201.71,0,0,1-21.27,5.49c-7.37,1.34-14.73,2.67-22.21,3.3-5.2.44-10.39.95-15.61,1-1.35,0-2.08.07-1.8-1.92,1.44-10.13,3.67-20.13,5.41-30.21,1.47-8.46,3.12-16.88,4.64-25.34q3.32-18.46,6.54-37,2.61-15.12,5.09-30.26,2.39-14.59,4.56-29.23c1.32-8.85,2.53-17.72,3.73-26.58.95-7,1.86-13.94,2.67-20.92.18-1.59.56-3.29-.34-4.84-.26-.14.19-1.48-.73-.46a9.35,9.35,0,0,0-2.72,4.79c-2.48,4.64-4.86,9.33-7.44,13.92-4.44,7.91-10.12,14.94-15.82,21.95l-10.58,10.62a9.6,9.6,0,0,0-1.14.73c-8.73,7.54-18,14.21-28.7,18.8a1.45,1.45,0,0,0-.89,1.54l-3.9,12.31-.45-.21a3.82,3.82,0,0,0-.21.46c-4.3,13.42-7.91,27.05-12.56,40.37a1.09,1.09,0,0,0,.34,1.24l-.5,2.13a5.14,5.14,0,0,0-1,2.31l-5.11,12.67c-.39.7-.81,1.39-1.18,2.11-5.5,10.69-12,20.6-21.57,28.21a64,64,0,0,1-21.54,11.74c-1.76.36-3.51.81-5.29,1.06-3.42.48-6.52,0-8.54-3.27l.22,0c.88-2.35.19-4.89,1-7.28a133.63,133.63,0,0,0,4.18-15.65q2.43-10.83,4.07-21.82c1-7,2.21-14.07,3.18-21.12.71-5.06,1.21-10.16,1.73-15.25.05-.51.66-1.51-.6-1.67s-1.77,1.06-2.72,1.45c-11.56,7.85-24.06,13.85-37,18.94a8.23,8.23,0,0,0-3.23.2c-2.55.62-5.14,1.34-7.75.22-3.93-3.33-4.07-5.85-.62-11,1.39.33,1.29-1,1.61-1.62,6.41-12.77,7-26.65,7-40.47,0-5.05-.27-10.22-.75-15.34-.8-8.74-1.85-17.45-3.08-26.13-1.52-10.76-3.46-21.49-4.1-32.32a144.05,144.05,0,0,1,1.06-31.05,128.5,128.5,0,0,1,6.41-25.53c.31-.84,1.21-1.79.25-2.81,1.69-5,4.27-9.63,6.53-14.38,4.77-8,9.91-15.78,16.54-22.43,1.1-1.1.44-1.7-.33-2.41a126.59,126.59,0,0,1-19.52-23.3c-2.76-5.24-5.84-10.34-7.68-16,.13-.32.47-.72.38-1a84.92,84.92,0,0,1-3-9c-.38-1.39-1.49-1.68-2.8-1.62-3.11.16-6.13-.63-9.19-1-2.75-.29-5.23-2.08-8.12-1.35-2.8-1.22-6.12-1.3-8.53-3.28-2.17-1.79-4.57-3.24-6.73-5-2.35-2.2-4.83-4.33-4.57-8l.92-2.39c1.3-1.72,3.18-2.31,5.17-2.79,2.74-.65,5.45-1.45,8.17-2.19,1.24-.34,1.25-.73,0-1.12A84.62,84.62,0,0,1,121.72,201.25Zm183.41,31.42.07,0a7.72,7.72,0,0,0-1.41,4.51l9.28-2.82,2.43-.89a77.39,77.39,0,0,0,10.27-3.55,379,379,0,0,0,38.77-16.81c.64-.32,1.43-.47,1.64-1.32,1.83-.72,3.38-2.06,5.42-2.34a1.66,1.66,0,0,0,1.43-2,3.65,3.65,0,0,0,3-1.72c-5.39.82-10.69,1.69-16,2.43-7.59,1.06-15.19,2.11-22.8,3-7.25.86-14.52,1.51-21.79,2.25-.65.06-1.43.06-.85,1.09l-.42,1.13-4.28,7.18A50.87,50.87,0,0,0,305.13,232.67ZM374,317.38a22.4,22.4,0,0,1-.15,2.46c-.32,2,.36,2.46,2.33,2a8.58,8.58,0,0,1,5.37.5c5.23,4.51,2.79,9.88-1.86,11.22a14.09,14.09,0,0,0-2,.91c-4.56.67-9.07,1.57-12.82,4.5-3.11,2.42-6,5.2-5.34,9.6a80.47,80.47,0,0,1,.49,10.16c0,1.48,0,3,0,4.46a49.12,49.12,0,0,1,12.2-18.77,39.35,39.35,0,0,1,11.11-4.87c3.32-.07,6.7-.71,9.84,1,2,2.05,3.62,4.22,2.27,7.33-1.18,2.72-3.4,3.7-6.18,3.77a10.21,10.21,0,0,0-6.15,2c-10.12,6.45-12.25,18.49-8,28.62,2.65,6.34,7.19,10.74,14.31,11.86,6.06,3.43,6.61,4.44,5.38,9.73-2.4,3.17-5.77,3.24-9.27,2.94a29,29,0,0,1-18.18-12.59,2.49,2.49,0,0,0-.67,2.09c-.63,5.74-1.16,11.49-1.87,17.22-1.52,12.37-3.14,24.73-4.71,37.09-.4,4.59-1.66,9.06-1.8,13.69a10.94,10.94,0,0,0-.48,1.54c-1.73,11.52-3.38,23-5.2,34.56-2.06,13.13-4.31,26.24-6.4,39.37-3,19-6.61,37.94-10.43,56.82,0,.85-.73,1.64-.27,2.67l13.37-1.71A170.43,170.43,0,0,0,383.41,589a131.6,131.6,0,0,0,15.85-5.76,157.36,157.36,0,0,0,15.51-7.12l6.19-3.2a236.52,236.52,0,0,0,32.59-20.77c1.81-1.35,2.5-2.74,2.06-4.83l.73-12.55,2-21.18.72-8.68a3.11,3.11,0,0,0,.4-2.36c.19-2.24.32-4.48.64-6.73.85-6,1.45-12.06,2.15-18.1.65-4.31,1.3-8.62,2-13.12l-5.75,1c-2.41.56-4.94.13-7.31,1h-12c-.25-.12-.48-.34-.73-.35a93.93,93.93,0,0,1-20.87-3.52c-1.25-.36-1.61.36-2.12,1.15-3.78,5.88-7.54,11.77-10.8,18a119.16,119.16,0,0,0-9.33,22.95c-1.1,3.88-4,5.59-7.22,4.68-3.59-1-5.28-4.05-4.4-7.92,1.71-7.49,4.9-14.42,8.21-21.3,3.78-7.89,8.43-15.29,12.94-22.76a2.63,2.63,0,0,0,1-2.13c-.17-6.77.84-13.44,1.78-20.11a154.56,154.56,0,0,1,4.93-15.57,99.72,99.72,0,0,1,7.65-13.35,75.33,75.33,0,0,1,37.54-27.57c5.66-1.93,11.52-2.83,17.37-3.83a39.28,39.28,0,0,1,4.34-.06c1.7.15,2.31-.58,2.23-2.15a3.19,3.19,0,0,0,.41-.71q5.25-19.89,10.49-39.8l4.56-16.47q.79-2.53,1.57-5.06l5.13-16.46q4.89-16.11,9.79-32.21c1.25-3.72,2.49-7.45,3.77-11.16.41-1.2,1.11-2.34.63-3.69-.17-.42-.32-.86-.51-1.27-1.52-3.37-1.49-3.32-4.42-1.23a75.67,75.67,0,0,1-25.59,11.89c-5.07,1.28-10.27,1.72-15.39,2.65H459.14c-6.68-1-13.43-1.61-19.94-3.53-1.34-.4-1.55.77-2,1.4-6.87,9.13-12.17,19.19-17.26,29.37-1,2.05-2,4.11-2.93,6.17a6.6,6.6,0,0,1-6.5,4.18c-5.15-2.16-6.33-5-4-10.27A186.76,186.76,0,0,1,428,248.74a4,4,0,0,0,1.1-2.71c.19-4.39.47-8.77.72-13.16a2.5,2.5,0,0,0,.35-.74c2.76-21,12.1-38.16,29.72-50.4,1.66-1.16.6-1.61-.24-2.3-19-15.46-40.27-27-63.14-35.6a125.9,125.9,0,0,0-13.84-4.61v17.66c-1,2.76-.36,5.63-.56,8.44-.59,8.11-1,16.24-1.48,24.36a37.81,37.81,0,0,1-.15,3.84c-.23,1.83.43,1.93,2.13,1.79,5.73-.47,11.41-1.83,17.21-1.22,3.59,2.49,4.55,4.74,3.21,7.75a9.66,9.66,0,0,1-3.58,3.71,176.74,176.74,0,0,1-16.09,10c-4.78,2.69-4.92,2.84-4.38,8.41-.2.41-.56.8-.58,1.21-.39,7.5-.74,15-1.1,22.51-.1,1.74-.21,3.47-.29,5.21-.44,9.3-1.34,18.59-1.37,27.91.1,3.38-.91,6.7-.53,10.09-.06,2.71-.11,5.41-.17,8.12-.77,1.67-.39,3.42-.39,5.15C374.75,308.58,373.55,313,374,317.38ZM496.09,180.32a60.81,60.81,0,0,0-17.09,3.9,53.5,53.5,0,0,0-17.19,10.38,33.58,33.58,0,0,0-5.56,5.49A48.27,48.27,0,0,0,447,214a61,61,0,0,0-5.55,19.28,10,10,0,0,0-.06,3.86c-.43,2-.74,4-1.32,6-.46,1.51.28,2,1.44,2.29.7.19,1.41.34,2.11.5,3.82.5,7.63,1.14,11.47,1.46,7.69.63,15.37.6,22.94-1.26a62,62,0,0,0,24.08-8.53c.87-.51,1.77-1,2.6-1.53,15-10.21,24.16-24.93,31.61-41,.77-1.64,1.5-3.3,2.31-4.91.47-.94.31-1.41-.7-1.85-6.35-2.76-12.74-5.36-19.61-6.54a33.31,33.31,0,0,0-8.46-1.49A95.89,95.89,0,0,0,496.09,180.32ZM472.3,387.12A62.7,62.7,0,0,0,456.88,391,57.05,57.05,0,0,0,439.13,402,40.18,40.18,0,0,0,433,408,41.73,41.73,0,0,0,426,418a55.64,55.64,0,0,0-7.42,20.8,24.45,24.45,0,0,0-.94,8.42c-.35,2.7-.34,5.2,3.28,5.55,5,.86,9.88,2,15,1.57.8.8,1.84.65,2.83.67a86,86,0,0,0,13.71-.65,72.39,72.39,0,0,0,22.06-6.12,65.51,65.51,0,0,0,18.9-12.56,47,47,0,0,0,6.06-6.07,70.78,70.78,0,0,0,7.55-9.45,134.89,134.89,0,0,0,11.65-20.27c.54-1.15,1.58-2.58,0-3.6-1.88-1.2-4-2.11-6-3.14-7.34-2.73-14.68-5.44-22.64-5.66l.05,0c-.22-.51-.69-.49-1.14-.56A54.1,54.1,0,0,0,472.3,387.12ZM346.2,310.24c.09,1.36,1.16,2.21,1.73,3.32a147.5,147.5,0,0,1,7,15.92c.23.61.14,1.83,1.18.51l2.81-2.12,1.08-.59a.7.7,0,0,0,.26.1c.07,0,.2-.07.2-.12.23-2,.57-4,.64-5.95.28-8.77,1.13-17.51,1.57-26.26.61-11.88,1.14-23.76,1.68-35.64.23-5.21.47-10.45.82-15.63.29-4.08-.21-8.25.85-12.3.17-.68.76-1.92-.62-2.41-2,.18-3.24,1.76-4.8,2.74a284.55,284.55,0,0,0-34.31,26.36c-.72.69-1.69,1.25-2.12,2.08-2.42,4.67-4.78,9.38-5.89,14.59-.56,2.62-.39,5,1.33,7.17l9.46,7.54,8.42,8.39,3.14,4Q343.44,306.07,346.2,310.24ZM536,287.45a57.68,57.68,0,0,0-4.47-12.28,49.12,49.12,0,0,0-3.66-8.7l-1.82,5.19-.43-.27a2,2,0,0,0-.26.41c-2.21,7.18-4.23,14.43-6.67,21.52-6.29,18.31-11.38,37-16.29,55.66-2.23,8.5-4.31,17-6.48,25.55-.15.59-.77,1.36.59.87,7.39,2.45,15,4.34,22.21,7.22.88.46,1.75.95,2.64,1.38,4.11,2,8.37,3.68,11.77,6.86a7.24,7.24,0,0,1,0,7.55c-.8,1.53-1.5,3.11-2.25,4.67l-1.56,2.76c-1.35,2.54-3.05,4.91-4,7.66-.2.28-.42.55-.6.86-5.78,10.16-12.25,19.82-20.71,28a84.84,84.84,0,0,1-19,14.27c-3.73,0-6.14,2.18-6.64,5.59-1,6.58-2.26,13.13-3.1,19.73-.92,7.24-2.18,14.45-2.42,21.77a1.81,1.81,0,0,0-.55,1.48c-.33,5.37-.95,10.7-1.58,16-.57,4.88-.83,9.8-1.14,14.72,0,.57-.74,2.06,1.07,1.59l1.09-.76c.61,0,.89-.49,1.14-1a148,148,0,0,0,11.05-11.07c2.65-2.92,5.38-5.78,7.94-8.79A232,232,0,0,0,529.17,455l2.31-5a4.61,4.61,0,0,0,.15.53c0,.05.21.09.22.08a15.76,15.76,0,0,0,.72-1.42,240.24,240.24,0,0,0,12.1-41.34,223.38,223.38,0,0,0,4.45-36.7,241,241,0,0,0-2.72-46.86A218.61,218.61,0,0,0,539.56,295c-.12-.36.34-1.66-1-1.28-1.43-1.88-1.27-4.42-2.62-6.34Zm-195.95,111c.14.09.39.28.42.25a1.71,1.71,0,0,0,.45-.62,113.35,113.35,0,0,0,6.36-28.56,106.8,106.8,0,0,0,.17-19.18,100.73,100.73,0,0,0-4.12-19.82c-.11-.35,0-1.46-1.08-.82l-1.68-3.5a57.17,57.17,0,0,0-6.74-12.45c-4.28-6.1-9-11.84-15.44-15.85a7.08,7.08,0,0,0-2.32-1.89c-7.39-5.39-10.83-12.38-9.27-21.68a33.54,33.54,0,0,1,5.79-13.65c-7.73-.92-14.25-3.48-18.29-10.33-1.6-4.15-2.12-8.66-.37-12.56,2.85-6.36.78-11.55-2.29-16.84-.27-.47-.48-1-.72-1.46,1.38-.57,1.16.84,1.47,1.34a55.11,55.11,0,0,1,4.09,9.65c2.37-6.59,5.64-11.86,9-17.09a2.2,2.2,0,0,0,.2-2.36c-1.6-2.55-2.63-5.46-4.75-7.68l-.08-.55a78.93,78.93,0,0,0-18.74-21.11c-12.06-9.3-25.86-13.84-41-14.66a102.27,102.27,0,0,0-12.13,0,97.26,97.26,0,0,0-24.78,4.62c-8.8,2.69-16.83,7.22-25.39,10.5-11.45,4.37-23.19,6.74-35.54,5.91a85,85,0,0,1-17.74-3.26c9,18.06,24.08,27.88,42.93,33.43-6.66,6.53-14.47,10.24-23.07,13.23a41.52,41.52,0,0,0,9.38,3.27c5.27,1.15,10.59,2.22,16,1.16.29.21.57.59.86.6,4.17.09,6,2.63,6.73,6.34,2.3,11.46,7.36,21.63,14.33,31a121,121,0,0,0,16.38,17.4c2.55,2.28,3.93,5.18,3.06,8.63a12.92,12.92,0,0,1-4,5.86A91.52,91.52,0,0,0,193,324.76c-10,16.48-14.62,34.44-15.94,53.45v17.07c.06,1-.35,2,.5,2.83-.31,3,.72,5.83.62,8.78l1.8,12.49c1.4,9.77,2.9,19.53,4.19,29.32,1.33,10.14,1.27,20.34,1.16,30.54a109.85,109.85,0,0,1-2,17.44,100,100,0,0,1-3.7,13.43,14,14,0,0,0,1.42-.39,127.56,127.56,0,0,0,34.87-20.8,220.85,220.85,0,0,0,35-36.93,216.68,216.68,0,0,0,26.7-45.55c2.56-6,5.32-11.9,6.67-18.32a78.67,78.67,0,0,0,5.45-18.32,91.29,91.29,0,0,0,1.12-22c-.38-5.69-2.06-11.12-3.31-16.63,1.32-.54,1.44.67,1.86,1.33,8,12.53,10.46,26.38,9.13,40.9-1.1,12.16-5.32,23.54-9.85,34.8-1.06,2.64-2.83,5.09-2.71,8.14a30,30,0,0,0-3.47,5.88c-2.14,5.17-5.29,9.79-8,14.62-5.9,10.38-13,20-20.12,29.48l-1.55,1.94a2.74,2.74,0,0,0-.67.46,158.35,158.35,0,0,1-18.61,19.95c-2.39,2.15-3.75,4.29-4,7.33-.85,13.07-2.6,26.05-4.51,39a333.94,333.94,0,0,1-7.71,38.77c-.18.67-.88,1.4-.19,2.05s1.36-.08,2-.3c8.85-3.1,15.39-9.34,21.2-16.29,8.12-9.71,13.19-21.16,17.34-33,5.76-16.48,10.25-33.35,15.33-50,1-3.26,2.27-6.51,2.56-10-1.89-.23-3.34,1.78-5.15.52,5.91-1.38,11.3-4.17,16.72-6.69,12.44-5.78,22-15.36,31.09-25.3a97,97,0,0,0,14.57-21.22C335.76,408.76,337.7,403.51,340.06,398.47ZM340.17,235l4.88-3.43-.25-.37-7.93,3.35-5.07,2-13.74,4.59c-5.1,1.71-10.46,2.67-15.52,4.93,3.57,4.07,4.55,4.94,8.73,5.66,3.07.53,6.39,1.35,9.22-.9C327.07,245.59,333.61,240.28,340.17,235Z" transform="translate(-59.12 -118.75)"/><path class="cls-2" d="M166.51,512.54c-3.45,5.18-3.31,7.7.62,11,.22,1.33,1.31,1.07,2.17,1.14a19.88,19.88,0,0,0,8.81-1.56c13-5.09,25.46-11.09,37-18.94,2,1.89,1.1,4.26.93,6.44-.47,6-1.86,11.89-2,17.93-1.12,2.46-.58,5.27-1.62,7.75a17,17,0,0,1-.09,2.48c-2,11.61-4,23.25-7.3,34.58a122.2,122.2,0,0,0-2.6,12.21,259.6,259.6,0,0,1-43.6-26.78,254.67,254.67,0,0,1-30.44-26.65A263.45,263.45,0,0,1,103,501.09a252.33,252.33,0,0,1-21.71-38,226.14,226.14,0,0,1-17.56-54.63,272.24,272.24,0,0,1-4-33.24A231.31,231.31,0,0,1,59.38,349,242.25,242.25,0,0,1,66,304.24a233.49,233.49,0,0,1,47.81-94.88c1.89-2.25,3.8-4.47,5.67-6.74a3.66,3.66,0,0,1,2.21-1.37A84.62,84.62,0,0,0,142.18,220c-3.47,1.64-7.34,2-10.89,3.39-1.16.45-3.11.49-2.47,2.71l-.92,2.39a.93.93,0,0,0-.21-.19c-.07,0-.23,0-.24,0-.93,3.16,1.54,7.2,5,8.19,2.16,1.77,4.56,3.22,6.73,5,2.41,2,5.73,2.06,8.53,3.28,3.38,1.5,7.09,1.78,10.59,2.84a5.7,5.7,0,0,0-.83.09c-.13,0-.24.21-.44.39,2.52.17,4.9,1,7.38.66,1.31-.15,1.85.36,2.23,1.72A99.74,99.74,0,0,0,175,270.58c.81,1.51,1.18,3.5,3.17,4.17a126.59,126.59,0,0,0,19.52,23.3c.77.71,1.43,1.31.33,2.41-6.63,6.65-11.77,14.41-16.54,22.43-.78-.6-.92.19-1.13.58a146.52,146.52,0,0,0-8.53,19.78c-.28.8-.57,1.56.14,2.29-.4.92-.21,2-1,2.85l-.34-.64c-.06,0-.16.06-.17.1q-1.41,5.49-2.81,11c-.1,3.71-1.67,7.26-1.22,11a6.83,6.83,0,0,1,0,3.36c-1.25.65-1,1.82-1,2.89,0,6.3,0,12.6,0,18.89,0,.87-.33,1.86.6,2.52l0,0c-.36,3,.21,6,.54,9a107.13,107.13,0,0,0,2.1,14.25,14.36,14.36,0,0,1,1.15,6.69c-.15.31-.46.66-.41.94,1,5.35,1.63,10.75,2.25,16.16.23,2-.18,4.2,1,6.08-.18,9.12,1.28,18.17.7,27.35-.64,10.18-1.47,20.21-5.44,29.72a1.22,1.22,0,0,0,.19,1.51Z" transform="translate(-59.12 -118.75)"/><path class="cls-3" d="M267.26,533a5.14,5.14,0,0,1,1-2.31c.07.07.13.16.2.19s.24,0,.26,0a11.37,11.37,0,0,0,.68-1.46c6.06-17.48,10.95-35.31,16.39-53,.22-.72.39-1.43-.25-2a1.45,1.45,0,0,1,.89-1.54c10.66-4.59,20-11.26,28.7-18.8a9.6,9.6,0,0,1,1.14-.73,2.19,2.19,0,0,0,1.91-.9l7.8-7.8a2.14,2.14,0,0,0,.87-1.92c5.7-7,11.38-14,15.82-21.95,2.58-4.59,5-9.28,7.44-13.92.06.07.11.16.19.19s.21.06.25,0c.67-.68.67-1.84,1.62-2.4.67,2-.26,3.83-.43,5.69-.35,3.86-1,7.69-1.57,11.53,0,1.1,0,2.21-.14,3.3q-1.29,9.75-2.67,19.48c-1,7.12-2.21,14.21-3.16,21.34-.74,5.59-2.29,11.08-2.32,16.77l.05-.05A81,81,0,0,0,339,499.28a30.29,30.29,0,0,0-1.64,9.39c-.16.22-.42.42-.46.66-1,5.46-1.92,10.93-2.83,16.4-1,5.74-1.87,11.48-2.8,17.23-.51.37-.45.94-.56,1.47-1.33,6.69-2.14,13.48-3.83,20.1-.48,3-1.17,5.93-1.38,8.92s-2.2,6.07-.94,9.33c-.15,1-.27,2-.46,3q-1.9,9.93-3.83,19.86c-.23,0-.26-1.25-.51-.29-1.17,4.42-1.09,4.4-5.84,4.07-2-.14-4.05,0-6.08,0a265.16,265.16,0,0,1-32.57-2.66,248.71,248.71,0,0,1-48.85-11.63c-4.58-1.58-9.09-3.36-14.2-5.27l5.72-1.59s.09-.17.07-.24-.11-.14-.17-.21A64,64,0,0,0,239.4,576c9.55-7.61,16.07-17.52,21.57-28.21.37-.72.79-1.41,1.18-2.11.07.06.13.15.21.18s.23,0,.26,0a72.65,72.65,0,0,0,5-11.86C267.71,533.73,267.39,533.34,267.26,533Z" transform="translate(-59.12 -118.75)"/><path class="cls-3" d="M314.67,201.86c-4-6.05-8.22-12-12.75-17.63-1.65-3.63-4.8-5.87-7.76-8.28,0,0-.28.18-.43.27A150.4,150.4,0,0,0,280.94,167c.65-.76-.13-.93-.53-1.13-3-1.51-6.05-3.07-9.15-4.43-7-3-14.35-4.72-21.81-6.07-1-.06-2-.09-3-.2A124.16,124.16,0,0,0,225,155c-5.91.39-11.72,1.83-17.52,3.1a34.05,34.05,0,0,0-3.63,1.15c-2.09.94-4.69.69-6.29,2.74l-2.27,1.17,0-.19c-1.57-1-2.79.24-4,.76-3.28,1.37-6.51,2.88-9.74,4.37-5.38,2.49-11.08,4.09-16.65,6-5.71.69-11.35,2.11-17.79,1.55,3.37-2.58,6.32-4.93,9.36-7.16,12.38-9.1,25.21-17.53,39-24.27a238.08,238.08,0,0,1,63.55-21c8.66-1.51,17.34-2.66,26.11-3.38a242.75,242.75,0,0,1,31.66-.88c9.4.45,18.8,1.22,28.16,2.52,8.8,1.23,17.54,2.69,26.21,4.59-.22.73-.45,1.47-.67,2.21a6.74,6.74,0,0,0-1,4.18c0,2.3.09,4.6-.05,6.9-.68,11.6-1.46,23.2-2.15,34.8q-.63,10.56-1.09,21.13a3.15,3.15,0,0,1-1.14,2.07A66.42,66.42,0,0,0,351.19,199c-2.48-.25-4.91.3-7.35.59-5.41.63-10.8,1.65-16.24,1.95C323.31,201.78,319,203.72,314.67,201.86Z" transform="translate(-59.12 -118.75)"/><path class="cls-4" d="M320.29,605.6q1.92-9.93,3.83-19.86c.19-1,.31-2,.46-3,1.12-6,2.45-12.07,2.93-18.23.13-.1.37-.18.4-.31q1.93-10.37,3.84-20.74c1.1-6,2.39-12,3.26-18,.79-5.4,2.42-10.68,2.4-16.2,1.53-3.17,1.25-6.71,2.09-10,.88-5.51,2.09-11,2.39-16.57l-.05.05a63,63,0,0,0,2.14-10.4q2.29-14.22,4.23-28.48c1-7.31,2.23-14.59,2.51-22,.41-.14.46-.48.51-.86q1.13-9.25,2.29-18.52c.9,1.55.52,3.25.34,4.84-.81,7-1.72,13.95-2.67,20.92-1.2,8.86-2.41,17.73-3.73,26.58q-2.18,14.63-4.56,29.23-2.46,15.15-5.09,30.26-3.21,18.49-6.54,37c-1.52,8.46-3.17,16.88-4.64,25.34-1.74,10.08-4,20.08-5.41,30.21-.28,2,.45,1.95,1.8,1.92,5.22-.1,10.41-.61,15.61-1,7.48-.63,14.84-2,22.21-3.3a201.71,201.71,0,0,0,21.27-5.49c1.06-.32,2.17-1.28,3.35-.23a214,214,0,0,1-24.4,6.53,239.83,239.83,0,0,1-39.81,4.53c-1.67.06-1.71-.85-1.39-1.79A7.8,7.8,0,0,0,320.29,605.6Z" transform="translate(-59.12 -118.75)"/><path class="cls-5" d="M547.41,434.57c-1.14-2.22.45-4.09,1-6a290.51,290.51,0,0,0,6.9-33.55c2.33-15,2.42-30.16,2.1-45.29-.15-6.75-1-13.48-1.59-20.22h.47a216.35,216.35,0,0,1,2.21,38.22c-.82,22.18-4,44-10.64,65.26C547.68,433.51,547.56,434,547.41,434.57Z" transform="translate(-59.12 -118.75)"/><path class="cls-6" d="M370.48,128.27c.22-.74.45-1.48.67-2.21a181.75,181.75,0,0,1,27.05,7.81c-1,1-2,.07-2.81-.23-7.17-2.55-14.56-4.35-21.88-6.39-1.08-.3-1.8-.54-1.95,1.12-.12,1.45-.46,2.88-.46,4.36,0,9.09-1,18.13-1.2,27.22-.16,6.21-.74,12.43-1.06,18.65-.32,6-1,12.05-1.08,18.1,0,.41-.34.81-.52,1.21l-.46-.55c.16-2.83.32-5.65.47-8.48.42-7.52.85-15,1.25-22.56Q369.51,147.3,370.48,128.27Z" transform="translate(-59.12 -118.75)"/><path class="cls-7" d="M551.27,191.26c-.82-.81-.15-1.51.13-2.25,1.23-3.2.47-5.74-2.49-7.22-12.12-6.06-24.7-10.58-38.29-12.15a69.65,69.65,0,0,0-36.28,5.13c-.68.3-1.32.74-2,.06a64,64,0,0,1,22.15-6.2c18.62-2,35.72,3.48,52.33,11.09C553.2,182.64,554,185,551.27,191.26Z" transform="translate(-59.12 -118.75)"/><path class="cls-8" d="M179.1,170.2c.67.93-.4.86-.68,1-10.8,4.33-21.94,7.05-33.65,6.22-6.36-.44-12.68-1.52-18.53-4.34-.08,0-.19-.12-.18-.16a2.62,2.62,0,0,1,.19-.46,62.28,62.28,0,0,0,27.86,3.89c3.85-.3,7.75-.53,11.36-2.17a7.77,7.77,0,0,0,2.65-.35C171.76,172.53,175.43,171.39,179.1,170.2Z" transform="translate(-59.12 -118.75)"/><path class="cls-9" d="M556.27,329.52h-.47c-1.26-4-1.38-8.2-2.15-12.29a229.72,229.72,0,0,0-10.44-38.55c-.31-.82-1.22-1.78-.22-2.78,6.23,15.56,10,31.77,12.73,48.26C556,325.94,555.46,327.8,556.27,329.52Z" transform="translate(-59.12 -118.75)"/><path class="cls-10" d="M202.45,585.6a122.2,122.2,0,0,1,2.6-12.21c3.31-11.33,5.27-23,7.3-34.58a17,17,0,0,0,.09-2.48l.59,0a31.18,31.18,0,0,1-.16,4.11c-2.29,13-4.63,26-8.67,38.7-.66,2.08-1.21,4.27.05,6.39l-.22,0C203.52,585.76,203,586.38,202.45,585.6Z" transform="translate(-59.12 -118.75)"/><path class="cls-11" d="M179.1,170.2c-3.67,1.19-7.34,2.33-11,3.6a7.77,7.77,0,0,1-2.65.35l-.61,0c5.57-1.93,11.27-3.53,16.65-6,3.23-1.49,6.46-3,9.74-4.37,1.25-.52,2.47-1.73,4-.76Z" transform="translate(-59.12 -118.75)"/><path class="cls-12" d="M394.85,403.93c1.23-5.29.68-6.3-5.38-9.73-2.85-3-5.91-5.76-7.72-9.63-5.78-12.28-2.76-26.93,7.56-32.89,2.78-.07,5-1.05,6.18-3.77,1.35-3.11-.24-5.28-2.27-7.33.55-.8-.19-.92-.63-1.06-3.06-1-6.19-.65-9.31-.41l.1.47a39.35,39.35,0,0,0-11.11,4.87,20.23,20.23,0,0,1,5.46-9.95,14.09,14.09,0,0,1,2-.91c4.65-1.34,7.09-6.71,1.86-11.22-.74-2-2.52-1.17-3.74-1.07-2.71.23-3.91-.63-3.41-3.42a37.67,37.67,0,0,0,.11-13.72c0-1.73-.38-3.48.39-5.15.06,1.32.13,2.64.2,4,.13-4,1-8.08,0-12.08-.38-3.39.63-6.71.53-10.09a7.26,7.26,0,0,0,1-3.61c.42-9.84.77-19.68,1.15-29.51a7.42,7.42,0,0,0,.51-2.09c-.31-5,.89-10,.59-15-.14-2.22,1.37-4.41.1-6.65-.54-5.57-.4-5.72,4.38-8.41a176.74,176.74,0,0,0,16.09-10,9.66,9.66,0,0,0,3.58-3.71c1.34-3,.38-5.26-3.21-7.75-.22-1.58-1.51-1.19-2.4-1.12-2.61.21-5.21.58-7.81.91-2.16.28-4.34.42-6.49.6-4,.32-.83-3.59-2.49-4.8.48-8.12.89-16.25,1.48-24.36.2-2.81-.4-5.68.56-8.44.3,1.12-.26,2.34.67,4-.33-6.21.82-11.8.55-17.47-.16-3.24,0-3.27,3.15-2.18,2.24.77,4.43,1.7,6.7,2.39.85.25,1.76,1.24,2.77.24,22.87,8.63,44.12,20.14,63.14,35.6.84.69,1.9,1.14.24,2.3-17.62,12.24-27,29.38-29.72,50.4a2.5,2.5,0,0,1-.35.74c-.16-.38.12-.92-.51-1.25-.43,5.75-1.5,11.38-1.31,17.12a186.76,186.76,0,0,0-21.54,37.8c-2.29,5.26-1.11,8.11,4,10.27-.23.14-.78,0-.54.58,0,0,.17,0,.26.05,4.51.73,10.27-5.78,9.71-11,5.09-10.18,10.39-20.24,17.26-29.37.48-.63.69-1.8,2-1.4,6.51,1.92,13.26,2.55,19.94,3.53-.55.24-1.29-.22-1.71.41h15.85v-.23l-1.07-.19c5.12-.93,10.32-1.37,15.39-2.65a75.67,75.67,0,0,0,25.59-11.89c2.93-2.09,2.9-2.14,4.42,1.23.19.41.34.85.51,1.27l-4.77,13.64a1,1,0,0,0,.37,1.21q-4.89,16.11-9.79,32.21a4.43,4.43,0,0,0-.47-.17s-.12.11-.14.18c-1.15,3.62-2.4,7.22-3.39,10.89-.48,1.81-2,3.46-1.13,5.56q-.78,2.52-1.57,5.06l-.36-.62a1.69,1.69,0,0,0-.22.39c-1.41,4.89-2.8,9.78-4.21,14.67-.21.72-.43,1.42.23,2q-5.25,19.9-10.49,39.8a3.19,3.19,0,0,1-.41.71c-.12-.21-.24-.42-.37-.63,0,0-.17.06-.17.09,0,2.34-1.7,2.14-3.26,2.12s-3,0-4.68,0c.64.84,1.36.4,1.91.64-5.85,1-11.71,1.9-17.37,3.83a75.33,75.33,0,0,0-37.54,27.57c-1.06-1.23.58-1.86.67-2.92.38-4.18.93-8.36,1.7-12.48,2.92-15.64,6.13-31.23,10.2-46.62a404,404,0,0,1,16-49.13c1.26-3.07.83-4.45-1.72-5.62-2.12-1-4.1-.23-5.43,2.25-4.06,7.55-6.64,15.7-9.35,23.76a380.59,380.59,0,0,0-11.25,40.22c-2.23,10.17-4.5,20.36-6.18,30.64-2,12.32-3.42,24.74-5.12,37.36,1.67-1.14.88-3.55,2.85-4.11a154.56,154.56,0,0,0-4.93,15.57c-.21-.13-.35-1.26-.56-.3-.6,2.65-.65,5.42-1.24,8.08-1,4.79.13,9.7-1,14.46-4.51,7.47-9.16,14.87-12.94,22.76-3.31,6.88-6.5,13.81-8.21,21.3-.88,3.87.81,6.92,4.4,7.92,3.24.91,6.12-.8,7.22-4.68a119.16,119.16,0,0,1,9.33-22.95c3.26-6.2,7-12.09,10.8-18,.51-.79.87-1.51,2.12-1.15a93.93,93.93,0,0,0,20.87,3.52c.25,0,.48.23.73.35a5.4,5.4,0,0,0-.82.13c-.12,0-.19.23-.38.47h14.31v-.43l-1.08-.17c2.37-.84,4.9-.41,7.31-1,1,.83,2.07.56,3.09.23,1.46-.47,1.63-.2,1.43,1.35-.45,3.5-1.4,6.94-1.26,10.5a4.19,4.19,0,0,0-.41,1c-.62,5.25-1.34,10.49-1.74,15.76-.21,2.66-1.49,5.36-.14,8.05a3.11,3.11,0,0,1-.4,2.36c-.07-.36-.29-.83-.14-1s-.47-.43-.46-.1c.65,3.3-1.61,6.51-.12,9.83l-2,21.18c-.25-.55.22-1.29-.6-1.83-.07,2.63-.16,5.15-.47,7.67-.26,2.18-.61,4.52.34,6.71.44,2.09-.25,3.48-2.06,4.83A236.52,236.52,0,0,1,421,572.91c-.92-.68-.66-1.68-.61-2.56.14-2.74.23-5.5.59-8.21,1.24-9.24,1.91-18.54,3.17-27.79,1.27-9.42,2.85-18.78,4.35-28.16.55-3.43,1.39-6.83,1.76-10.27.28-2.67-1.09-3.83-3.8-3.83s-4.1,1.27-4.87,5c-1,5-1.85,10.07-2.66,15.12-1.05,6.58-2,13.18-3,19.78s-1.77,13.23-2.34,19.89c-.6,6.92-1.41,13.82-2.08,20.73-.2,2.18-.53,4.65,3.11,3.33,0,0,.12.14.17.21a157.36,157.36,0,0,1-15.51,7.12,1.12,1.12,0,0,0-1.48-.23,135.1,135.1,0,0,1-14.15,5.27c-.46.14-.6.34-.22.72a170.43,170.43,0,0,1-34.47,8.63c-.75-.78-1.73-.53-2.58-.43-2.07.24-4.11.71-6.17.94-1.63.18-3.51.8-4.35-1.47,3.82-18.88,7.4-37.8,10.43-56.82,2.09-13.13,4.34-26.24,6.4-39.37,1.82-11.51,3.47-23,5.2-34.56a10.94,10.94,0,0,1,.48-1.54,4.39,4.39,0,0,0,.11.81c0,.13.21.22.31.32.59-3.89,1.21-7.78,1.74-11.69.14-1,.47-2.17-.36-3.13,1.57-12.36,3.19-24.72,4.71-37.09.71-5.73,1.24-11.48,1.87-17.22a2.49,2.49,0,0,1,.67-2.09,29,29,0,0,0,18.18,12.59c-.2.13-.41.25-.6.39,0,0,.07.2.11.19,2.17-.09,4.42.49,6.51-.33C393.06,406.55,394.87,406.1,394.85,403.93ZM416.6,153.21c-.55,7.31-.25,14.11-.51,20.9-.39,10.26-.8,20.53-1.32,30.79-.26,5.12-.64,10.24-1.27,15.32-.88,7-2.07,13.9-3.09,20.86a4.77,4.77,0,0,0,2.26,4.7c1.45.91,3.14,0,4.47-1.25a7,7,0,0,0,2.1-4.35c1.54-9.29,2.6-18.62,3.43-28,.86-9.67,1.42-19.35,2-29,.46-8.07.09-16.2.11-24.3a2,2,0,0,0-1-2.07C421.45,155.65,419.17,154.5,416.6,153.21Z" transform="translate(-59.12 -118.75)"/><path class="cls-13" d="M284.28,388.12c-1.35,6.42-4.11,12.35-6.67,18.32A216.68,216.68,0,0,1,250.91,452a220.85,220.85,0,0,1-35,36.93,127.56,127.56,0,0,1-34.87,20.8,14,14,0,0,1-1.42.39,100,100,0,0,0,3.7-13.43,109.85,109.85,0,0,0,2-17.44c.11-10.2.17-20.4-1.16-30.54-1.29-9.79-2.79-19.55-4.19-29.32l-1.8-12.49c1.55-3.35-.58-6.54-.5-9.84l-.12,1.06c-.85-.82-.44-1.86-.5-2.83,1.15-4.23.3-8.55.48-12.82.06-1.4.57-2.94-.48-4.25,1.32-19,6-37,15.94-53.45a91.52,91.52,0,0,1,15.24-19.07,12.92,12.92,0,0,0,4-5.86c.87-3.45-.51-6.35-3.06-8.63a121,121,0,0,1-16.38-17.4c-7-9.32-12-19.49-14.33-31-.74-3.71-2.56-6.25-6.73-6.34-.29,0-.57-.39-.86-.6,9.94-10.38,21.08-19.35,32.62-27.84,7.6-5.6,15.37-10.93,24.45-14,.52.64,1.1.4,1.73.17,8.38-3,17.08-3.7,25.89-3.56,2.56,1,5.34.79,8,1.45,9.28,2.31,18,6.18,27.18,8.86,3.35,1,6.62,2.5,10.24,2.34,2.12,2.22,3.15,5.13,4.75,7.68a2.2,2.2,0,0,1-.2,2.36c-3.36,5.23-6.63,10.5-9,17.09a55.11,55.11,0,0,0-4.09-9.65c-.31-.5-.09-1.91-1.47-1.34-.54-.73-1.12-1.43-1.61-2.18a27.1,27.1,0,0,0-6-7.09c-3.14-2.39-6.76-4.16-10.16-6.2.06-.15.2-.34.15-.46s-.25-.22-.41-.28c-6.84-2.89-14-3.12-21.21-2.32a38.14,38.14,0,0,0-4.43,1,3.14,3.14,0,0,0,.32.31.72.72,0,0,0,.26.08l-4.48,1.56c-2.07-.35-6.3,1.68-7.12,3.42-6.44,4.48-12.32,9.5-16.08,16.58-.81-.6-.92.22-1.13.61a44,44,0,0,0-4.8,25.77c.23,2.25,0,4.78,1.58,6.78l0-.06c.41,5.05,3.19,9.14,5.44,13.44a2.68,2.68,0,0,0,.64-.18c3.5,4.36,6.18,9.41,11.34,12.32,3.22,1.82,6.15,4.18,9.2,6.3,1.51,1.05,3.62.44,5,1.84-.09.15-.25.31-.23.44a.58.58,0,0,0,.38.31l19.61,6c1.84.91,3.64,1.91,5.53,2.7,1.24.52,2.24,1.85,3.84,1.29a37.66,37.66,0,0,1,8.93,6.47A12.74,12.74,0,0,0,291.5,314c2.67,2.63,4.38,6,6.6,8.92l3.76,8.29c-1,1.24.1,2.29.46,3.31,3.89,10.84,4.19,22.08,3.4,33.34-.51,7.3-2.48,14.41-4.84,21.36-1.92,4-3.82,8-5.75,12.06-.21.45-.32.84.12,1.2a74,74,0,0,1-9.28,13.9c-.12-3.05,1.65-5.5,2.71-8.14,4.53-11.26,8.75-22.64,9.85-34.8,1.33-14.52-1.17-28.37-9.13-40.9-.42-.66-.54-1.87-1.86-1.33l-3.75-6.08c-8.91-14.45-24.8-23.65-43.54-20.58-22.53,3.68-37.44,16.56-46.07,37.31-5.36,12.9-7,26.54-7.67,40.3-.46,9.45.05,18.94-.62,28.4-.27,3.86,1,7.67.35,11.54-.75,4.22-.52,4.51,3.65,4.17a12.85,12.85,0,0,0,1.62-.31c8.51-1.95,14.4-7.33,18.92-14.51,2.13-3.39,3.81-7,5.69-10.63.25,1.49.12,2.94.29,4.35a16.93,16.93,0,0,0,1,4.27c1.59,4,4.12,6,8,5.87,6.59-.15,11.08-3.78,15.18-8.33a63.28,63.28,0,0,0,8.07-12.08c.31,1.27.54,2.22.79,3.17,1.41,5.57,5,8.33,10.71,8.35,3.75,0,7-1.48,10-3.39C276.21,399.31,280.32,393.77,284.28,388.12Z" transform="translate(-59.12 -118.75)"/><path class="cls-14" d="M284.28,388.12c-4,5.65-8.07,11.19-14.07,14.91-3.07,1.91-6.29,3.4-10,3.39-5.7,0-9.3-2.78-10.71-8.35-.25-.95-.48-1.9-.79-3.17A63.28,63.28,0,0,1,240.6,407c-4.1,4.55-8.59,8.18-15.18,8.33-3.88.09-6.41-1.9-8-5.87a16.93,16.93,0,0,1-1-4.27c-.17-1.41,0-2.86-.29-4.35-1.88,3.61-3.56,7.24-5.69,10.63C205.91,418.63,200,424,191.51,426a12.85,12.85,0,0,1-1.62.31c-4.17.34-4.4.05-3.65-4.17.69-3.87-.62-7.68-.35-11.54.67-9.46.16-18.95.62-28.4.67-13.76,2.31-27.4,7.67-40.3,8.63-20.75,23.54-33.63,46.07-37.31,18.74-3.07,34.63,6.13,43.54,20.58l3.75,6.08c1.25,5.51,2.93,10.94,3.31,16.63-.66.57-.46,1.35-.47,2.06a127.32,127.32,0,0,1-.49,14.87c-.21,1.63-1.43,3.32-.16,5A78.67,78.67,0,0,1,284.28,388.12Z" transform="translate(-59.12 -118.75)"/><path class="cls-15" d="M243.36,203.91l4.48-1.56A43.36,43.36,0,0,1,273.16,204c3.4,2,7,3.81,10.16,6.2a27.1,27.1,0,0,1,6,7.09c.49.75,1.07,1.45,1.61,2.18.24.48.45,1,.72,1.46,3.07,5.29,5.14,10.48,2.29,16.84-1.75,3.9-1.23,8.41.37,12.56-1.41,2.45-3,4.82-4.2,7.36-4.25,8.86-3.66,17.47,2.31,25.3,6.52,8.53,15.58,13,26,14.89,6.45,4,11.16,9.75,15.44,15.85a57.17,57.17,0,0,1,6.74,12.45c-.81.8-.15,1.51.15,2.25,3.75,9.09,5,18.68,5.46,28.39.31,7-.61,13.87-1.62,20.75-.94.86-2,1.65-2.82,2.59a30,30,0,0,1-25.34,10.07c-4.6-.33-8.93-1.85-12.21-5.43,2.48-10,4-20.16,3.43-30.61A73.27,73.27,0,0,0,299.47,324c-.25-.49-.21-1.63-1.37-1.06-2.22-3-3.93-6.29-6.6-8.92a42.33,42.33,0,0,0-6.05-6.07,37.66,37.66,0,0,0-8.93-6.47,43.41,43.41,0,0,0-9.37-4.49c-1.76-.62-3.51-1.31-5.31-1.87-4.81-1.48-9.63-2.92-14.45-4.37-1.38-1.4-3.49-.79-5-1.84-3-2.12-6-4.48-9.2-6.3-5.16-2.91-7.84-8-11.34-12.32-2.62-4.14-4-8.88-6.08-13.26l0,.06a16.48,16.48,0,0,0-.16-2.73c-2.29-10.71-.54-20.81,4.51-30.43,3.76-7.08,9.64-12.1,16.08-16.58Zm19.78,6.7a17,17,0,0,0-16.91,16.91,16.83,16.83,0,1,0,33.65-.31A16.42,16.42,0,0,0,263.14,210.61Z" transform="translate(-59.12 -118.75)"/><path class="cls-16" d="M472.88,535.79c-.25.48-.53.92-1.14,1a4.48,4.48,0,0,1-.45-3.19c.61-6.26,1.55-12.5,1.57-18.81,1.28-4.3,1-8.79,1.63-13.17.83-5.49,1.4-11,2.1-16.52.77-6,1.57-11.91,2.36-17.86,1.07-3,.8-6.43,3.33-8.85L485,456.6a84.84,84.84,0,0,0,19-14.27c8.46-8.15,14.93-17.81,20.71-28,.18-.31.4-.58.6-.86,2.56-1.92,3.6-4.62,4-7.66l1.56-2.76c3.33-2,5.1-9.38,2.9-12.23-.08-.1-.45,0-.68,0-3.4-3.18-7.66-4.9-11.77-6.86-.89-.43-1.76-.92-2.64-1.38.15-1.23-1-1.09-1.59-1.3a125.15,125.15,0,0,0-14-4.75c-1.59-.4-3.42-.46-4.69-1.34-1.79-1.25.52-3.18-.17-4.79a7.24,7.24,0,0,0,.56-1.2c2.9-10.94,5.77-21.89,8.69-32.83,2.23-8.38,4.54-16.74,6.82-25.1,1.6-3,2.21-6.38,3.28-9.58,3.63-10.81,7.09-21.68,10.27-33,1.86,2.34,1.86,5.17,3.56,7.13,1.24,4,2.24,8,4.54,11.56l0-.05c0,3.58,1.8,6.66,2.75,10,1.31,4.62,2,9.41,3.82,13.9a19.4,19.4,0,0,0,.11,2.75c.83,4.66,1.88,9.29,2.54,14,.83,5.87,1.48,11.76,1.84,17.7a225.56,225.56,0,0,1,0,31.84c-.17,2.23-.08,4.47-.11,6.7.24,1.34.47,2.68-.39,3.91-.56.32-.59.87-.62,1.43a85.68,85.68,0,0,1-1.52,10.57c-1,5.38-1.94,10.79-2.9,16.18a6.43,6.43,0,0,0-.56,1.19,217.81,217.81,0,0,1-11.72,35.54c-.29.67-.72,1.32,0,2a232,232,0,0,1-37.3,60.89c-2.56,3-5.29,5.87-7.94,8.79-.33-.44-.63-.21-.89.06q-5.07,5.06-10.13,10.12C472.64,535.17,472.44,535.47,472.88,535.79Z" transform="translate(-59.12 -118.75)"/><path class="cls-17" d="M227.92,194.11c-9.08,3-16.85,8.36-24.45,14-11.54,8.49-22.68,17.46-32.62,27.84-5.45,1.06-10.77,0-16-1.16a41.52,41.52,0,0,1-9.38-3.27c8.6-3,16.41-6.7,23.07-13.23-18.85-5.55-33.92-15.37-42.93-33.43a85,85,0,0,0,17.74,3.26c12.35.83,24.09-1.54,35.54-5.91,8.56-3.28,16.59-7.81,25.39-10.5A97.26,97.26,0,0,1,229,167.05a33.64,33.64,0,0,0,12.13,0c15.11.82,28.91,5.36,41,14.66a78.93,78.93,0,0,1,18.74,21.11c-9.3-2-18.19-5.29-27.14-8.45-5.67-2-11.38-4.05-17.57-3.67-.2-.16-.4-.45-.61-.46C246.08,189.71,236.81,190.53,227.92,194.11Z" transform="translate(-59.12 -118.75)"/><path class="cls-18" d="M512.64,393.18c2,1,4.07,1.94,6,3.14,1.61,1,.57,2.45,0,3.6A134.89,134.89,0,0,1,507,420.19a70.78,70.78,0,0,1-7.55,9.45,12.59,12.59,0,0,0-6.06,6.07,65.51,65.51,0,0,1-18.9,12.56c-.68-.73-1.33-.26-2,.06a46,46,0,0,1-10.35,3.41l-9.74,2.18c-4-.37-8,.55-12.05.63-1.51,0-3-1.33-4.48-.18-5.09.41-10-.71-15-1.57-.08-.67.43-.92.86-1.28a251.21,251.21,0,0,1,21.7-16,244.3,244.3,0,0,1,43.17-22.59c5.95-2.42,12.11-4.36,17.81-7.39,1.4-.74,2.47-1.8,1.87-3.51s-2.26-2.36-4-2c-1.51.32-3,1-4.46,1.42-22.53,6.74-43.74,16.2-62.64,30.42-6.23,4.69-12.5,9.34-17.56,15.38a24.45,24.45,0,0,1,.94-8.42c.23.12.45,1.2.57.39a60.15,60.15,0,0,1,6.68-19.5c.27-.5.88-1.05.17-1.69A41.73,41.73,0,0,1,433,408a13.27,13.27,0,0,0,6.1-6.06A57.05,57.05,0,0,1,456.88,391c.24.12.53.41.7.35a149.41,149.41,0,0,1,14.73-3.8l17.74,0-.05,0c.2.17.39.47.62.5a84,84,0,0,1,20.55,5.43A1.11,1.11,0,0,0,512.64,393.18Z" transform="translate(-59.12 -118.75)"/><path class="cls-19" d="M441.39,237.14a10,10,0,0,1,.06-3.86,1.08,1.08,0,0,0,1-1.09,54.54,54.54,0,0,1,4.63-16.46c.29-.6.55-1.18-.07-1.73a48.27,48.27,0,0,1,9.25-13.91c1.79-.59,4.81-3.56,5.56-5.49A53.5,53.5,0,0,1,479,184.22c1.55.94,2.8-.32,4.09-.7,4.26-1.28,8.69-1.69,13-2.76,1.18,0,2.37.07,3.55,0,3.4-.23,6.85.55,10.23-.44a33.31,33.31,0,0,1,8.46,1.49c-.45.17-1.41.32-.07.64a102,102,0,0,1,18.18,6c1.41.63,1.65,1.27,1,2.69-.57,1.2-2.1,2.26-1.08,3.93-7.45,16-16.61,30.75-31.61,41-.83.56-1.73,1-2.6,1.53-1-.77-1.73.21-2.44.6A80.75,80.75,0,0,1,485.15,244c-2.6.82-5.39.81-7.9,2a14.52,14.52,0,0,0-2.19,0,75.39,75.39,0,0,1-21.21.52c-3.11-.35-6.32-.28-9.23-1.74,3.73-4.48,8.29-8.11,12.83-11.67A216.5,216.5,0,0,1,513,201.78c5-1.93,10-3.81,14.93-5.74,1.35-.52,2.62-1.34,2.17-3s-1.89-2.38-3.67-2.16a9.76,9.76,0,0,0-1,.32c-15.54,4-30.7,8.94-44.74,16.92-13.34,7.57-25.94,16.09-36.63,27.22C443.26,236.08,442.73,237.21,441.39,237.14Z" transform="translate(-59.12 -118.75)"/><path class="cls-20" d="M304.2,384.84c3.28,3.58,7.61,5.1,12.21,5.43a30,30,0,0,0,25.34-10.07c.86-.94,1.88-1.73,2.82-2.59a122.89,122.89,0,0,1-5,19.91c-2.31,4.92-4.19,10.05-6.84,14.81-.24.44-.32.84.1,1.21a97,97,0,0,1-14.57,21.22c-9.11,9.94-18.65,19.52-31.09,25.3-5.42,2.52-10.81,5.31-16.72,6.69l0-.2a2.16,2.16,0,0,0-2.32-.32c-3.73,1.21-7.58,1-11.41,1-.88,0-1.88.24-2.4-.84,7.16-9.51,14.22-19.1,20.12-29.48,2.74-4.83,5.89-9.45,8-14.62a30,30,0,0,1,3.47-5.88,74,74,0,0,0,9.28-13.9,79.46,79.46,0,0,0,6-12.72l.68-1.18c1.27.23,1-.89,1.11-1.45A3.74,3.74,0,0,1,304.2,384.84Z" transform="translate(-59.12 -118.75)"/><path class="cls-13" d="M270.46,466.75c1.81,1.26,3.26-.75,5.15-.52-.29,3.48-1.57,6.73-2.56,10-5.08,16.68-9.57,33.55-15.33,50-4.15,11.85-9.22,23.3-17.34,33-5.81,7-12.35,13.19-21.2,16.29-.66.22-1.34,1-2,.3s0-1.38.19-2.05A333.94,333.94,0,0,0,225.06,535c1.91-12.94,3.66-25.92,4.51-39,.2-3,1.56-5.18,4-7.33a158.35,158.35,0,0,0,18.61-19.95,2.74,2.74,0,0,1,.67-.46l.57.12c3.45,1,6.94.19,10.45.1l-1.79-.31,8.45-1.66Z" transform="translate(-59.12 -118.75)"/><path class="cls-21" d="M359,327.87,356.15,330c-.73-1.77-1.45-3.55-2.22-5.32-2.25-5.19-4.29-10.49-7.68-15.1-1-2.91-3-5.16-4.69-7.65a.49.49,0,0,0-.89,0l-3.14-4c.45-.41.31-.83,0-1.18q-3.57-3.6-7.19-7.19a.76.76,0,0,0-1.19,0L319.65,282c.12-.13.38-.32.35-.39-2.5-5.91.43-11,2.5-16.21a72.71,72.71,0,0,1,3.83-7.24,284.55,284.55,0,0,1,34.31-26.36c1.47,1.15,2.66-2.09,3.57-.54.55.92-.4,2.76-.29,4.23a13,13,0,0,1,0,1.65c-.3,5.54-.32,11.1-1.08,16.62-.38,8.56-.72,17.13-1.15,25.69-.28,5.63-.69,11.26-1.05,16.89a73.14,73.14,0,0,1-.13,7.41C359.59,311.77,359.66,319.84,359,327.87Z" transform="translate(-59.12 -118.75)"/><path class="cls-22" d="M412.63,419.69c-2,.56-1.18,3-2.85,4.11,1.7-12.62,3.11-25,5.12-37.36,1.68-10.28,4-20.47,6.18-30.64a380.59,380.59,0,0,1,11.25-40.22c2.71-8.06,5.29-16.21,9.35-23.76,1.33-2.48,3.31-3.23,5.43-2.25,2.55,1.17,3,2.55,1.72,5.62a404,404,0,0,0-16,49.13c-4.07,15.39-7.28,31-10.2,46.62-.77,4.12-1.32,8.3-1.7,12.48-.09,1.06-1.73,1.69-.67,2.92A99.72,99.72,0,0,0,412.63,419.69Z" transform="translate(-59.12 -118.75)"/><path class="cls-23" d="M441.39,237.14c1.34.07,1.87-1.06,2.6-1.82,10.69-11.13,23.29-19.65,36.63-27.22,14-8,29.2-12.94,44.74-16.92a9.76,9.76,0,0,1,1-.32c1.78-.22,3.19.41,3.67,2.16s-.82,2.5-2.17,3c-5,1.93-10,3.81-14.93,5.74a216.5,216.5,0,0,0-55.53,31.36c-4.54,3.56-9.1,7.19-12.83,11.67-.6.14-1.1.35-1,1.11-.7-.16-1.41-.31-2.11-.5-1.16-.32-1.9-.78-1.44-2.29C440.65,241.18,441,239.14,441.39,237.14Z" transform="translate(-59.12 -118.75)"/><path class="cls-24" d="M417.61,447.25c5.06-6,11.33-10.69,17.56-15.38,18.9-14.22,40.11-23.68,62.64-30.42,1.5-.45,2.95-1.1,4.46-1.42,1.77-.38,3.37.12,4,2s-.47,2.77-1.87,3.51c-5.7,3-11.86,5-17.81,7.39a244.3,244.3,0,0,0-43.17,22.59,251.21,251.21,0,0,0-21.7,16c-.43.36-.94.61-.86,1.28C417.27,452.45,417.26,450,417.61,447.25Z" transform="translate(-59.12 -118.75)"/><path class="cls-25" d="M414.77,576.11c0-.07-.14-.22-.17-.21-3.64,1.32-3.31-1.15-3.11-3.33.67-6.91,1.48-13.81,2.08-20.73.57-6.66,1.38-13.28,2.34-19.89s1.93-13.2,3-19.78c.81-5,1.63-10.11,2.66-15.12.77-3.69,2.23-5,4.87-5s4.08,1.16,3.8,3.83c-.37,3.44-1.21,6.84-1.76,10.27-1.5,9.38-3.08,18.74-4.35,28.16-1.26,9.25-1.93,18.55-3.17,27.79-.36,2.71-.45,5.47-.59,8.21-.05.88-.31,1.88.61,2.56Z" transform="translate(-59.12 -118.75)"/><path class="cls-26" d="M373,207.44a1.66,1.66,0,0,1-1.43,2c-2,.28-3.59,1.62-5.42,2.34a6.22,6.22,0,0,0-2.78,1.09c-4.76,2.37-9.54,4.68-14.44,6.73-7.76,3.23-15.47,6.56-23.19,9.85l-9.93,3.25c-.38.12-1.07.13-.34.76l-2.43.89c-1.71-1-3.08.42-4.59.71-3.5.68-3.48.81-3.28-2.4l-.07,0c1.66-1.17,2.05-3.13,2.83-4.8s2.34-3,1.9-5.07l4.28-7.18c1.58-.37,3.15-.77,4.73-1.09,1.37-.28,2.88.5,4.13-.57,5.32.28,10.51-1,15.79-1.24a91,91,0,0,0,9.63-1.45l3.3-.67c6.57,0,13-1.4,19.37-2.65Z" transform="translate(-59.12 -118.75)"/><path class="cls-17" d="M318.4,297.92c-10.4-1.92-19.46-6.36-26-14.89-6-7.83-6.56-16.44-2.31-25.3,1.22-2.54,2.79-4.91,4.2-7.36,4,6.85,10.56,9.41,18.29,10.33a33.54,33.54,0,0,0-5.79,13.65c-1.56,9.3,1.88,16.29,9.27,21.68A7.08,7.08,0,0,1,318.4,297.92Z" transform="translate(-59.12 -118.75)"/><path class="cls-27" d="M331.8,236.57l5.07-2c1,1.1,2.35-.76,3.3.45-6.56,5.3-13.1,10.61-19.68,15.87-2.83,2.25-6.15,1.43-9.22.9-4.18-.72-5.16-1.59-8.73-5.66,5.06-2.26,10.42-3.22,15.52-4.93C323.11,241.05,327.51,239,331.8,236.57Z" transform="translate(-59.12 -118.75)"/><path class="cls-13" d="M389.31,351.68c-10.32,6-13.34,20.61-7.56,32.89,1.81,3.87,4.87,6.64,7.72,9.63-7.12-1.12-11.66-5.52-14.31-11.86-4.25-10.13-2.12-22.17,8-28.62A10.21,10.21,0,0,1,389.31,351.68Z" transform="translate(-59.12 -118.75)"/><path class="cls-13" d="M377.73,334.5a20.23,20.23,0,0,0-5.46,9.95,49.12,49.12,0,0,0-12.2,18.77c0-1.49,0-3,0-4.46a80.47,80.47,0,0,0-.49-10.16c-.68-4.4,2.23-7.18,5.34-9.6C368.66,336.07,373.17,335.17,377.73,334.5Z" transform="translate(-59.12 -118.75)"/><path class="cls-28" d="M169.79,427.43a14.36,14.36,0,0,0-1.15-6.69c.54-4.82-.86-9.47-1.31-14.2-.29-3-.16-6.16-1.33-9.07l0,0c.13-8.1-.46-16.21.4-24.3a6.83,6.83,0,0,0,0-3.36,35.54,35.54,0,0,0,1.82-11c1.4-3.36,1.94-6.94,2.72-10.46.77-.8.58-1.93,1-2.85l3-8.27c1,1,.06,2-.25,2.81a128.5,128.5,0,0,0-6.41,25.53,144.05,144.05,0,0,0-1.06,31.05c.64,10.83,2.58,21.56,4.1,32.32,1.23,8.68,2.28,17.39,3.08,26.13.48,5.12.74,10.29.75,15.34,0,13.82-.61,27.7-7,40.47-.32.63-.22,1.95-1.61,1.62l1.53-3.35c4.58-9.8,5.6-20.33,6.17-30.93.51-9.25-.43-18.44-1.15-27.64-.47-4.12-.8-8.26-1.47-12.35C171,434.66,171.16,430.91,169.79,427.43Z" transform="translate(-59.12 -118.75)"/><path class="cls-29" d="M546.47,388.15c.86-1.23.63-2.57.39-3.91a11.82,11.82,0,0,0,.74-3.69c.18-3.54.57-7.07.76-10.61a196.88,196.88,0,0,0-1.82-37.43c-1-7.11-2.36-14.16-3.56-21.24l-4.4-17.53c1.32-.38.86.92,1,1.28a218.61,218.61,0,0,1,6.84,29.36,241,241,0,0,1,2.72,46.86,223.38,223.38,0,0,1-4.45,36.7,240.24,240.24,0,0,1-12.1,41.34,15.76,15.76,0,0,1-.72,1.42s-.2,0-.22-.08a4.61,4.61,0,0,1-.15-.53,2.46,2.46,0,0,1,0-.82,190,190,0,0,0,10.37-32.94C544.07,407,546.24,397.75,546.47,388.15Z" transform="translate(-59.12 -118.75)"/><path class="cls-30" d="M496.52,375.4c-1.36.49-.74-.28-.59-.87,2.17-8.51,4.25-17,6.48-25.55,4.91-18.7,10-37.35,16.29-55.66,2.44-7.09,4.46-14.34,6.67-21.52a2,2,0,0,1,.26-.41l.43.27c-3.45,13.22-8,26.09-12.2,39.06-1.79,6.3-3.64,12.57-5.35,18.89-3.67,13.58-7.53,27.11-10.68,40.82C497.39,372.09,497,373.75,496.52,375.4Z" transform="translate(-59.12 -118.75)"/><path class="cls-31" d="M365.44,229.07c1.38.49.79,1.73.62,2.41-1.06,4.05-.56,8.22-.85,12.3-.35,5.18-.59,10.42-.82,15.63-.54,11.88-1.07,23.76-1.68,35.64-.44,8.75-1.29,17.49-1.57,26.26-.07,2-.41,4-.64,5.95,0,.05-.13.12-.2.12a.7.7,0,0,1-.26-.1c-.19-10.13,1.57-20.19,1.14-30.33a.81.81,0,0,0,.53-.85c.46-13.91,1.69-27.8,1.69-41.73.54-.2.5-.68.52-1.13.2-4.42.34-8.83.61-13.23C364.75,236.36,365.13,232.71,365.44,229.07Z" transform="translate(-59.12 -118.75)"/><path class="cls-32" d="M204.25,585.55c-1.26-2.12-.71-4.31-.05-6.39,4-12.65,6.38-25.67,8.67-38.7a31.18,31.18,0,0,0,.16-4.11c1.3-2.44,1-5.18,1.51-7.77l1.8-14.19q.75-5.81,1.51-11.63c1.26.16.65,1.16.6,1.67-.52,5.09-1,10.19-1.73,15.25-1,7.05-2.14,14.08-3.18,21.12q-1.62,11-4.07,21.82a133.63,133.63,0,0,1-4.18,15.65C204.44,580.66,205.13,583.2,204.25,585.55Z" transform="translate(-59.12 -118.75)"/><path class="cls-33" d="M195.25,163.17l2.27-1.17a58.71,58.71,0,0,0,9.94-3.27c.8-.11,1.62-.18,2.41-.34,5.19-1,10.37-1.94,15.63-2.56,7.61-.9,15.16-.26,22.73.14,9,1.59,17.87,3.59,26.1,7.75-.92.94-1.7.1-2.49-.24A84.18,84.18,0,0,0,247,157a108.3,108.3,0,0,0-48.42,5.81C197.56,163.13,196.49,164.16,195.25,163.17Z" transform="translate(-59.12 -118.75)"/><path class="cls-34" d="M342.26,329.72c1-.64,1,.47,1.08.82a100.73,100.73,0,0,1,4.12,19.82,106.8,106.8,0,0,1-.17,19.18,113.35,113.35,0,0,1-6.36,28.56,1.71,1.71,0,0,1-.45.62s-.28-.16-.42-.25a2.7,2.7,0,0,0-.08-.41,103.79,103.79,0,0,0,6.65-31,101.1,101.1,0,0,0-.82-23.11C345,339.11,343.49,334.46,342.26,329.72Z" transform="translate(-59.12 -118.75)"/><path class="cls-35" d="M351.72,210.6l-3.3.67c-1.83,0-3.67-.14-5.49,0-6.64.66-13.28,1.44-19.92,2.17-1.23.12-2.49.16-3.7.38-1.58.29-3.29-.46-4.75.63-.58-1,.2-1,.85-1.09,7.27-.74,14.54-1.39,21.79-2.25,7.61-.89,15.21-1.94,22.8-3,5.32-.74,10.62-1.61,16-2.43a3.65,3.65,0,0,1-3,1.72l-1.94.51c-2.32-.49-4.58.09-6.81.48C360.09,209.17,355.78,209.18,351.72,210.6Z" transform="translate(-59.12 -118.75)"/><path class="cls-36" d="M342.26,329.72c1.23,4.74,2.72,9.39,3.55,14.26a101.1,101.1,0,0,1,.82,23.11,103.79,103.79,0,0,1-6.65,31l-.4-.54a122.89,122.89,0,0,0,5-19.91c1-6.88,1.93-13.79,1.62-20.75-.44-9.71-1.71-19.3-5.46-28.39-.3-.74-1-1.45-.15-2.25Z" transform="translate(-59.12 -118.75)"/><path class="cls-37" d="M285.5,474.4c.64.61.47,1.32.25,2-5.44,17.67-10.33,35.5-16.39,53a11.37,11.37,0,0,1-.68,1.46s-.18,0-.26,0-.13-.12-.2-.19c.17-.71.33-1.42.5-2.13,1.62-4.82,3.37-9.59,4.83-14.45,2.75-9.12,5.79-18.15,8.05-27.41Z" transform="translate(-59.12 -118.75)"/><path class="cls-38" d="M366.78,197.36l.46.55c-2.73,1.51-5.82,1.22-8.75,1.62-8.38,1.15-16.78,2.15-25.18,3.14-5.78.68-11.57,1.26-18.12,2l2.29-1.09c2.54-.27,5.09-.52,7.63-.83q13.32-1.59,26.64-3.23L365,197.82C365.66,197.84,366.39,198.24,366.78,197.36Z" transform="translate(-59.12 -118.75)"/><path class="cls-39" d="M513.86,310.72c4.22-13,8.75-25.84,12.2-39.06l1.82-5.19a49.12,49.12,0,0,1,3.66,8.7c0,.24,0,.48-.07.72-1.7-2-1.7-4.79-3.56-7.13-3.18,11.29-6.64,22.16-10.27,33-1.07,3.2-1.68,6.56-3.28,9.58Z" transform="translate(-59.12 -118.75)"/><path class="cls-38" d="M485,456.6l-2.73,1.76c-1,.45-2.42.6-2.69,1.94-.47,2.28-.75,4.6-1.11,6.9-2.31,12.27-3.55,24.69-5.16,37.05l-.47-.56c.24-7.32,1.5-14.53,2.42-21.77.84-6.6,2.11-13.15,3.1-19.73C478.87,458.78,481.28,456.65,485,456.6Z" transform="translate(-59.12 -118.75)"/><path class="cls-40" d="M256.15,190.7c6.19-.38,11.9,1.67,17.57,3.67,8.95,3.16,17.84,6.44,27.14,8.45,0,.18.05.37.08.55-3.62.16-6.89-1.36-10.24-2.34-9.14-2.68-17.9-6.55-27.18-8.86-2.64-.66-5.42-.43-8-1.45Z" transform="translate(-59.12 -118.75)"/><path class="cls-41" d="M281.6,486.71c-2.26,9.26-5.3,18.29-8.05,27.41-1.46,4.86-3.21,9.63-4.83,14.45a1.09,1.09,0,0,1-.34-1.24c4.65-13.32,8.26-27,12.56-40.37a3.82,3.82,0,0,1,.21-.46Z" transform="translate(-59.12 -118.75)"/><path class="cls-42" d="M325.77,229.42c7.72-3.29,15.43-6.62,23.19-9.85,4.9-2,9.68-4.36,14.44-6.73a6.22,6.22,0,0,1,2.78-1.09c-.21.85-1,1-1.64,1.32a379,379,0,0,1-38.77,16.81Z" transform="translate(-59.12 -118.75)"/><path class="cls-43" d="M541.89,416.33a190,190,0,0,1-10.37,32.94,2.46,2.46,0,0,0,0,.82l-2.31,5c-.74-.66-.31-1.31,0-2a217.81,217.81,0,0,0,11.72-35.54,6.43,6.43,0,0,1,.56-1.19Z" transform="translate(-59.12 -118.75)"/><path class="cls-44" d="M351.75,199.48q-13.32,1.62-26.64,3.23c-2.54.31-5.09.56-7.63.83-1.21-.1-2.72.28-2.81-1.68,4.35,1.86,8.64-.08,12.93-.32,5.44-.3,10.83-1.32,16.24-1.95,2.44-.29,4.87-.84,7.35-.59Z" transform="translate(-59.12 -118.75)"/><path class="cls-11" d="M178.15,274.75c-2-.67-2.36-2.66-3.17-4.17a99.74,99.74,0,0,1-8.32-20.07c-.38-1.36-.92-1.87-2.23-1.72-2.48.29-4.86-.49-7.38-.66.2-.18.31-.35.44-.39a5.7,5.7,0,0,1,.83-.09c2.45.18,4.91.43,7.37.51,1.07,0,1.23.48,1.5,1.4a50.12,50.12,0,0,0,3.28,9.17C172.31,264.41,175.39,269.51,178.15,274.75Z" transform="translate(-59.12 -118.75)"/><path class="cls-45" d="M274.33,163.72c-8.23-4.16-17.1-6.16-26.1-7.75.46-.09,1-.14,1.22-.62,7.46,1.35,14.83,3,21.81,6.07,3.1,1.36,6.11,2.92,9.15,4.43.4.2,1.18.37.53,1.13Z" transform="translate(-59.12 -118.75)"/><path class="cls-46" d="M472.85,503.69l.47.56c-1,2.66-.17,5.44-.57,8.14a7.87,7.87,0,0,0-.38,1.29c-.59,5.61-1.37,11.2-1.62,16.82-.1,2.32-1.74,4.68-.1,7-1.81.47-1.1-1-1.07-1.59.31-4.92.57-9.84,1.14-14.72.63-5.34,1.25-10.67,1.58-16A1.81,1.81,0,0,1,472.85,503.69Z" transform="translate(-59.12 -118.75)"/><path class="cls-47" d="M170.47,258.73a50.12,50.12,0,0,1-3.28-9.17c-.27-.92-.43-1.36-1.5-1.4-2.46-.08-4.92-.33-7.37-.51-3.5-1.06-7.21-1.34-10.59-2.84,2.89-.73,5.37,1.06,8.12,1.35,3.06.32,6.08,1.11,9.19,1,1.31-.06,2.42.23,2.8,1.62a84.92,84.92,0,0,0,3,9C170.94,258,170.6,258.41,170.47,258.73Z" transform="translate(-59.12 -118.75)"/><path class="cls-48" d="M377.76,247.68c-.38,9.83-.73,19.67-1.15,29.51a7.26,7.26,0,0,1-1,3.61c0-9.32.93-18.61,1.37-27.91.08-1.74.19-3.47.29-5.21Z" transform="translate(-59.12 -118.75)"/><path class="cls-49" d="M443.62,245.92c-.1-.76.4-1,1-1.11,2.91,1.46,6.12,1.39,9.23,1.74a75.39,75.39,0,0,0,21.21-.52,14.52,14.52,0,0,1,2.19,0l.78.12c-7.57,1.86-15.25,1.89-22.94,1.26C451.25,247.06,447.44,246.42,443.62,245.92Z" transform="translate(-59.12 -118.75)"/><path class="cls-50" d="M361.18,297c.43,10.14-1.33,20.2-1.14,30.33l-1.08.59c.7-8,.63-16.1,1.55-24.11a73.14,73.14,0,0,0,.13-7.41Z" transform="translate(-59.12 -118.75)"/><path class="cls-51" d="M496.52,375.4c.44-1.65.87-3.31,1.31-5h.46c.69,1.61-1.62,3.54.17,4.79,1.27.88,3.1.94,4.69,1.34a125.15,125.15,0,0,1,14,4.75c.58.21,1.74.07,1.59,1.3C511.48,379.74,503.91,377.85,496.52,375.4Z" transform="translate(-59.12 -118.75)"/><path class="cls-52" d="M396.49,143.83c-1,1-1.92,0-2.77-.24-2.27-.69-4.46-1.62-6.7-2.39-3.16-1.09-3.31-1.06-3.15,2.18.27,5.67-.88,11.26-.55,17.47-.93-1.63-.37-2.85-.67-4V139.22A125.9,125.9,0,0,1,396.49,143.83Z" transform="translate(-59.12 -118.75)"/><path class="cls-53" d="M365.44,229.07c-.31,3.64-.69,7.29-.91,10.94-.27,4.4-.41,8.81-.61,13.23,0,.45,0,.93-.52,1.13l-.56-.6c.76-5.52.78-11.08,1.08-16.62a13,13,0,0,0,0-1.65c-.11-1.47.84-3.31.29-4.23-.91-1.55-2.1,1.69-3.57.54C362.2,230.83,363.42,229.25,365.44,229.07Z" transform="translate(-59.12 -118.75)"/><path class="cls-10" d="M326.33,258.17a72.71,72.71,0,0,0-3.83,7.24c-2.07,5.18-5,10.3-2.5,16.21,0,.07-.23.26-.35.39-1.72-2.15-1.89-4.55-1.33-7.17,1.11-5.21,3.47-9.92,5.89-14.59C324.64,259.42,325.61,258.86,326.33,258.17Z" transform="translate(-59.12 -118.75)"/><path class="cls-54" d="M217.85,502.76q-.76,5.82-1.51,11.63l-1.8,14.19h-.48c.14-6,1.53-11.93,2-17.93.17-2.18,1.1-4.55-.93-6.44C216.08,503.82,216.53,502.47,217.85,502.76Z" transform="translate(-59.12 -118.75)"/><path class="cls-55" d="M536.32,195.1c-1-1.67.51-2.73,1.08-3.93.68-1.42.44-2.06-1-2.69a102,102,0,0,0-18.18-6c-1.34-.32-.38-.47.07-.64,6.87,1.18,13.26,3.78,19.61,6.54,1,.44,1.17.91.7,1.85C537.82,191.8,537.09,193.46,536.32,195.1Z" transform="translate(-59.12 -118.75)"/><path class="cls-56" d="M470.65,537.52c-1.64-2.34,0-4.7.1-7,.25-5.62,1-11.21,1.62-16.82a7.87,7.87,0,0,1,.38-1.29c0,.79.07,1.58.11,2.37,0,6.31-1,12.55-1.57,18.81a4.48,4.48,0,0,0,.45,3.19Z" transform="translate(-59.12 -118.75)"/><path class="cls-57" d="M377.76,247.68h-.48c.36-7.5.71-15,1.1-22.51,0-.41.38-.8.58-1.21,1.27,2.24-.24,4.43-.1,6.65.3,5-.9,10-.59,15A7.42,7.42,0,0,1,377.76,247.68Z" transform="translate(-59.12 -118.75)"/><path class="cls-58" d="M538.58,293.74l4.4,17.53h-.45c-1.79-4.49-2.51-9.28-3.82-13.9-1-3.31-2.78-6.39-2.75-10C537.31,289.32,537.15,291.86,538.58,293.74Z" transform="translate(-59.12 -118.75)"/><path class="cls-59" d="M174.93,337.27l-3,8.27c-.71-.73-.42-1.49-.14-2.29a146.52,146.52,0,0,1,8.53-19.78c.21-.39.35-1.18,1.13-.58C179.2,327.64,176.62,332.26,174.93,337.27Z" transform="translate(-59.12 -118.75)"/><path class="cls-57" d="M380.61,189.68c1.66,1.21-1.5,5.12,2.49,4.8,2.15-.18,4.33-.32,6.49-.6,2.6-.33,5.2-.7,7.81-.91.89-.07,2.18-.46,2.4,1.12-5.8-.61-11.48.75-17.21,1.22-1.7.14-2.36,0-2.13-1.79A37.81,37.81,0,0,0,380.61,189.68Z" transform="translate(-59.12 -118.75)"/><path class="cls-60" d="M478,246.12l-.78-.12c2.51-1.15,5.3-1.14,7.9-2a80.75,80.75,0,0,0,14.52-5.85c.71-.39,1.4-1.37,2.44-.6A62,62,0,0,1,478,246.12Z" transform="translate(-59.12 -118.75)"/><path class="cls-61" d="M346.25,309.57c3.39,4.61,5.43,9.91,7.68,15.1.77,1.77,1.49,3.55,2.22,5.32-1,1.32-.95.1-1.18-.51a147.5,147.5,0,0,0-7-15.92c-.57-1.11-1.64-2-1.73-3.32Z" transform="translate(-59.12 -118.75)"/><path class="cls-62" d="M353.52,402.51q-1.15,9.25-2.29,18.52c-.05.38-.1.72-.51.86l-.59,0c.54-3.84,1.22-7.67,1.57-11.53.17-1.86,1.1-3.67.43-5.69-.95.56-.95,1.72-1.62,2.4,0,0-.18,0-.25,0s-.13-.12-.19-.19a9.35,9.35,0,0,1,2.72-4.79C353.71,401,353.26,402.37,353.52,402.51Z" transform="translate(-59.12 -118.75)"/><path class="cls-63" d="M452.39,453.92l9.74-2.18a46,46,0,0,0,10.35-3.41c.65-.32,1.3-.79,2-.06a72.39,72.39,0,0,1-22.06,6.12C452.4,454.23,452.39,454.07,452.39,453.92Z" transform="translate(-59.12 -118.75)"/><path class="cls-64" d="M459.5,502.54c-1.35-2.69-.07-5.39.14-8.05.4-5.27,1.12-10.51,1.74-15.76a4.19,4.19,0,0,1,.41-1h.5c-.7,6-1.3,12.09-2.15,18.1C459.82,498.06,459.69,500.3,459.5,502.54Z" transform="translate(-59.12 -118.75)"/><path class="cls-65" d="M253.37,468.42l-.57-.12,1.55-1.94c.52,1.08,1.52.84,2.4.84,3.83,0,7.68.24,11.41-1a2.16,2.16,0,0,1,2.32.32L262,468.21Z" transform="translate(-59.12 -118.75)"/><path class="cls-66" d="M512.64,393.18a1.11,1.11,0,0,1-1.47.27A84,84,0,0,0,490.62,388c-.23,0-.42-.33-.62-.5C498,387.74,505.3,390.45,512.64,393.18Z" transform="translate(-59.12 -118.75)"/><path class="cls-67" d="M426,418c.71.64.1,1.19-.17,1.69a60.15,60.15,0,0,0-6.68,19.5c-.12.81-.34-.27-.57-.39A55.64,55.64,0,0,1,426,418Z" transform="translate(-59.12 -118.75)"/><path class="cls-68" d="M404.88,457.5c1.15-4.76,0-9.67,1-14.46.59-2.66.64-5.43,1.24-8.08.21-1,.35.17.56.3-.94,6.67-1.95,13.34-1.78,20.11A2.63,2.63,0,0,1,404.88,457.5Z" transform="translate(-59.12 -118.75)"/><path class="cls-69" d="M447,214c.62.55.36,1.13.07,1.73a54.54,54.54,0,0,0-4.63,16.46,1.08,1.08,0,0,1-1,1.09A61,61,0,0,1,447,214Z" transform="translate(-59.12 -118.75)"/><path class="cls-70" d="M490.05,387.55l-17.74,0c0-.15,0-.3,0-.46a54.1,54.1,0,0,1,16.61-.13C489.36,387.06,489.83,387,490.05,387.55Z" transform="translate(-59.12 -118.75)"/><path class="cls-71" d="M428,248.74c-.19-5.74.88-11.37,1.31-17.12.63.33.35.87.51,1.25-.25,4.39-.53,8.77-.72,13.16A4,4,0,0,1,428,248.74Z" transform="translate(-59.12 -118.75)"/><path class="cls-72" d="M462.29,477.71h-.5c-.14-3.56.81-7,1.26-10.5.2-1.55,0-1.82-1.43-1.35-1,.33-2.12.6-3.09-.23l5.75-1C463.59,469.09,462.94,473.4,462.29,477.71Z" transform="translate(-59.12 -118.75)"/><path class="cls-73" d="M128.82,226.12c-.64-2.22,1.31-2.26,2.47-2.71,3.55-1.36,7.42-1.75,10.89-3.39,1.23.39,1.22.78,0,1.12-2.72.74-5.43,1.54-8.17,2.19C132,223.81,130.12,224.4,128.82,226.12Z" transform="translate(-59.12 -118.75)"/><path class="cls-74" d="M498.79,310.69c-.87-2.1.65-3.75,1.13-5.56,1-3.67,2.24-7.27,3.39-10.89,0-.07.11-.18.14-.18a4.43,4.43,0,0,1,.47.17Z" transform="translate(-59.12 -118.75)"/><path class="cls-75" d="M339.58,397.52l.4.54a2.7,2.7,0,0,1,.08.41c-2.36,5-4.3,10.29-7.22,15.07-.42-.37-.34-.77-.1-1.21C335.39,407.57,337.27,402.44,339.58,397.52Z" transform="translate(-59.12 -118.75)"/><path class="cls-76" d="M289.73,369.8c-1.27-1.71-.05-3.4.16-5a127.32,127.32,0,0,0,.49-14.87c0-.71-.19-1.49.47-2.06A91.29,91.29,0,0,1,289.73,369.8Z" transform="translate(-59.12 -118.75)"/><path class="cls-69" d="M496.08,180.76c-4.3,1.07-8.73,1.48-13,2.76-1.29.38-2.54,1.64-4.09.7a60.81,60.81,0,0,1,17.09-3.9C496.09,180.47,496.08,180.62,496.08,180.76Z" transform="translate(-59.12 -118.75)"/><path class="cls-77" d="M472.88,535.79c-.44-.32-.24-.62,0-.89Q478,529.83,483,524.78c.26-.27.56-.5.89-.06A148,148,0,0,1,472.88,535.79Z" transform="translate(-59.12 -118.75)"/><path class="cls-78" d="M492.66,332.22c-.66-.61-.44-1.31-.23-2,1.41-4.89,2.8-9.78,4.21-14.67a1.69,1.69,0,0,1,.22-.39l.36.62Z" transform="translate(-59.12 -118.75)"/><path class="cls-52" d="M419.91,286.46c.56,5.2-5.2,11.71-9.71,11-.09,0-.24,0-.26-.05-.24-.58.31-.44.54-.58a6.6,6.6,0,0,0,6.5-4.18C417.94,290.57,418.93,288.51,419.91,286.46Z" transform="translate(-59.12 -118.75)"/><path class="cls-79" d="M383.41,589c-.38-.38-.24-.58.22-.72A135.1,135.1,0,0,0,397.78,583a1.12,1.12,0,0,1,1.48.23A131.6,131.6,0,0,1,383.41,589Z" transform="translate(-59.12 -118.75)"/><path class="cls-80" d="M452.39,453.92c0,.15,0,.31,0,.47a86,86,0,0,1-13.71.65c-1,0-2,.13-2.83-.67,1.52-1.15,3,.21,4.48.18C444.37,454.47,448.35,453.55,452.39,453.92Z" transform="translate(-59.12 -118.75)"/><path class="cls-77" d="M326.81,442.71a2.14,2.14,0,0,1-.87,1.92l-7.8,7.8a2.19,2.19,0,0,1-1.91.9Z" transform="translate(-59.12 -118.75)"/><path class="cls-81" d="M472.3,387.12c0,.16,0,.31,0,.46a149.41,149.41,0,0,0-14.73,3.8c-.17.06-.46-.23-.7-.35A62.7,62.7,0,0,1,472.3,387.12Z" transform="translate(-59.12 -118.75)"/><path class="cls-82" d="M331.8,236.57c-4.29,2.41-8.69,4.48-13.74,4.59Z" transform="translate(-59.12 -118.75)"/><path class="cls-83" d="M267.26,533c.13.33.45.72.36,1a72.65,72.65,0,0,1-5,11.86s-.18,0-.26,0-.14-.12-.21-.18Z" transform="translate(-59.12 -118.75)"/><path class="cls-71" d="M335.84,596.66c.84,2.27,2.72,1.65,4.35,1.47,2.06-.23,4.1-.7,6.17-.94.85-.1,1.83-.35,2.58.43l-13.37,1.71C335.11,598.3,335.84,597.51,335.84,596.66Z" transform="translate(-59.12 -118.75)"/><path class="cls-84" d="M513.71,262a1,1,0,0,1-.37-1.21l4.77-13.64c.48,1.35-.22,2.49-.63,3.69C516.2,254.57,515,258.3,513.71,262Z" transform="translate(-59.12 -118.75)"/><path class="cls-85" d="M360.15,450.68c.83,1,.5,2.09.36,3.13-.53,3.91-1.15,7.8-1.74,11.69-.1-.1-.27-.19-.31-.32a4.39,4.39,0,0,1-.11-.81C358.49,459.74,359.75,455.27,360.15,450.68Z" transform="translate(-59.12 -118.75)"/><path class="cls-86" d="M374.53,304.16a37.67,37.67,0,0,1-.11,13.72l-.4-.5C373.55,313,374.75,308.58,374.53,304.16Z" transform="translate(-59.12 -118.75)"/><path class="cls-87" d="M531.47,275.89c0-.24,0-.48.07-.72A57.68,57.68,0,0,1,536,287.45C533.71,283.9,532.71,279.85,531.47,275.89Z" transform="translate(-59.12 -118.75)"/><path class="cls-88" d="M533.14,390.86c.23,0,.6-.11.68,0,2.2,2.85.43,10.24-2.9,12.23.75-1.56,1.45-3.14,2.25-4.67A7.24,7.24,0,0,0,533.14,390.86Z" transform="translate(-59.12 -118.75)"/><path class="cls-89" d="M305.2,232.63c-.2,3.21-.22,3.08,3.28,2.4,1.51-.29,2.88-1.75,4.59-.71l-9.28,2.82A7.72,7.72,0,0,1,305.2,232.63Z" transform="translate(-59.12 -118.75)"/><path class="cls-90" d="M472.2,259.21l1.07.19v.23H457.43c.42-.63,1.16-.17,1.71-.41Z" transform="translate(-59.12 -118.75)"/><path class="cls-91" d="M329.11,289.55a.76.76,0,0,1,1.19,0q3.61,3.58,7.19,7.19c.35.35.49.77,0,1.18Z" transform="translate(-59.12 -118.75)"/><path class="cls-92" d="M177.05,378.21c1,1.31.54,2.85.48,4.25-.18,4.27.67,8.59-.48,12.82Z" transform="translate(-59.12 -118.75)"/><path class="cls-93" d="M455.61,547.31c-.95-2.19-.6-4.53-.34-6.71.31-2.52.4-5,.47-7.67.82.54.35,1.28.6,1.83Q456,541,455.61,547.31Z" transform="translate(-59.12 -118.75)"/><path class="cls-94" d="M340.17,235c-.95-1.21-2.33.65-3.3-.45l7.93-3.35.25.37Z" transform="translate(-59.12 -118.75)"/><path class="cls-95" d="M293.73,176.22c.15-.09.39-.3.43-.27,3,2.41,6.11,4.65,7.76,8.28Z" transform="translate(-59.12 -118.75)"/><path class="cls-96" d="M451.22,466.6l1.08.17v.43H438c.19-.24.26-.43.38-.47a5.4,5.4,0,0,1,.82-.13Z" transform="translate(-59.12 -118.75)"/><path class="cls-97" d="M325.77,229.42v.46a77.39,77.39,0,0,1-10.27,3.55c-.73-.63,0-.64.34-.76Z" transform="translate(-59.12 -118.75)"/><path class="cls-98" d="M346.25,309.57l-.05.67q-2.76-4.17-5.53-8.34a.49.49,0,0,1,.89,0C343.22,304.41,345.27,306.66,346.25,309.57Z" transform="translate(-59.12 -118.75)"/><path class="cls-99" d="M178.11,523.15a19.88,19.88,0,0,1-8.81,1.56c-.86-.07-2,.19-2.17-1.14,2.61,1.12,5.2.4,7.75-.22A8.23,8.23,0,0,1,178.11,523.15Z" transform="translate(-59.12 -118.75)"/><path class="cls-89" d="M309.86,222.8c.44,2.08-1.14,3.45-1.9,5.07s-1.17,3.63-2.83,4.8A50.87,50.87,0,0,1,309.86,222.8Z" transform="translate(-59.12 -118.75)"/><path class="cls-100" d="M529.36,405.84c-.41,3-1.45,5.74-4,7.66C526.31,410.75,528,408.38,529.36,405.84Z" transform="translate(-59.12 -118.75)"/><path class="cls-101" d="M374,317.38l.4.5c-.5,2.79.7,3.65,3.41,3.42,1.22-.1,3-1,3.74,1.07a8.58,8.58,0,0,0-5.37-.5c-2,.43-2.65,0-2.33-2A22.4,22.4,0,0,0,374,317.38Z" transform="translate(-59.12 -118.75)"/><path class="cls-102" d="M314.56,214.49c1.46-1.09,3.17-.34,4.75-.63,1.21-.22,2.47-.26,3.7-.38,0,.16,0,.32,0,.48-1.25,1.07-2.76.29-4.13.57-1.58.32-3.15.72-4.73,1.09Z" transform="translate(-59.12 -118.75)"/><path class="cls-103" d="M496.08,180.76c0-.14,0-.29,0-.44a95.89,95.89,0,0,1,13.77,0c-3.38,1-6.83.21-10.23.44C498.45,180.83,497.26,180.76,496.08,180.76Z" transform="translate(-59.12 -118.75)"/><path class="cls-104" d="M132.47,236.52c-3.48-1-6-5-5-8.19,0,0,.17,0,.24,0a.93.93,0,0,1,.21.19C127.64,232.19,130.12,234.32,132.47,236.52Z" transform="translate(-59.12 -118.75)"/><path class="cls-105" d="M394.85,403.93c0,2.17-1.79,2.62-3.25,3.19-2.09.82-4.34.24-6.51.33,0,0-.12-.18-.11-.19.19-.14.4-.26.6-.39C389.08,407.17,392.45,407.1,394.85,403.93Z" transform="translate(-59.12 -118.75)"/><path class="cls-106" d="M375.09,290.89c1,4,.16,8,0,12.08-.07-1.32-.14-2.64-.2-4C375,296.3,375,293.6,375.09,290.89Z" transform="translate(-59.12 -118.75)"/><path class="cls-107" d="M439.13,402A13.27,13.27,0,0,1,433,408,40.18,40.18,0,0,1,439.13,402Z" transform="translate(-59.12 -118.75)"/><path class="cls-108" d="M493.36,435.71a12.59,12.59,0,0,1,6.06-6.07A47,47,0,0,1,493.36,435.71Z" transform="translate(-59.12 -118.75)"/><path class="cls-109" d="M475.19,374.94c-.55-.24-1.27.2-1.91-.64,1.68,0,3.18,0,4.68,0s3.22.22,3.26-2.12c0,0,.17-.09.17-.09.13.21.25.42.37.63.08,1.57-.53,2.3-2.23,2.15A39.28,39.28,0,0,0,475.19,374.94Z" transform="translate(-59.12 -118.75)"/><path class="cls-92" d="M177.55,398.11l.12-1.06c-.08,3.3,2.05,6.49.5,9.84C178.27,403.94,177.24,401.08,177.55,398.11Z" transform="translate(-59.12 -118.75)"/><path class="cls-110" d="M458.38,513.58c-1.49-3.32.77-6.53.12-9.83,0-.33.61-.14.46.1s.07.69.14,1Z" transform="translate(-59.12 -118.75)"/><path class="cls-111" d="M241.15,167.05a33.64,33.64,0,0,1-12.13,0A102.27,102.27,0,0,1,241.15,167.05Z" transform="translate(-59.12 -118.75)"/><path class="cls-112" d="M383.38,339.58l-.1-.47c3.12-.24,6.25-.6,9.31.41.44.14,1.18.26.63,1.06C390.08,338.87,386.7,339.51,383.38,339.58Z" transform="translate(-59.12 -118.75)"/><path class="cls-113" d="M461.81,194.6c-.75,1.93-3.77,4.9-5.56,5.49A33.58,33.58,0,0,1,461.81,194.6Z" transform="translate(-59.12 -118.75)"/><path class="cls-114" d="M173.06,450.62c.72,9.2,1.66,18.39,1.15,27.64-.57,10.6-1.59,21.13-6.17,30.93a1.22,1.22,0,0,1-.19-1.51c4-9.51,4.8-19.54,5.44-29.72.58-9.18-.88-18.23-.7-27.35Z" transform="translate(-59.12 -118.75)"/><path class="cls-115" d="M166,397.47c1.17,2.91,1,6,1.33,9.07.45,4.73,1.85,9.38,1.31,14.2a107.13,107.13,0,0,1-2.1-14.25C166.21,403.5,165.64,400.51,166,397.47Z" transform="translate(-59.12 -118.75)"/><path class="cls-116" d="M173.06,450.62h-.47c-1.14-1.88-.73-4.08-1-6.08-.62-5.41-1.24-10.81-2.25-16.16,0-.28.26-.63.41-.94,1.37,3.48,1.2,7.23,1.8,10.84C172.26,442.36,172.59,446.5,173.06,450.62Z" transform="translate(-59.12 -118.75)"/><path class="cls-117" d="M166.43,373.22c-.86,8.09-.27,16.2-.4,24.3-.93-.66-.6-1.65-.6-2.52,0-6.29,0-12.59,0-18.89C165.42,375,165.18,373.87,166.43,373.22Z" transform="translate(-59.12 -118.75)"/><path class="cls-87" d="M171,348.39c-.78,3.52-1.32,7.1-2.72,10.46l-.6,0q1.41-5.49,2.81-11s.11-.07.17-.1Z" transform="translate(-59.12 -118.75)"/><path class="cls-118" d="M167.64,358.83l.6,0a35.54,35.54,0,0,1-1.82,11C166,366.09,167.54,362.54,167.64,358.83Z" transform="translate(-59.12 -118.75)"/><path class="cls-119" d="M214.06,528.58h.48c-.48,2.59-.21,5.33-1.51,7.77l-.59,0C213.48,533.85,212.94,531,214.06,528.58Z" transform="translate(-59.12 -118.75)"/><path class="cls-120" d="M350.13,421.86l.59,0c-.28,7.39-1.52,14.67-2.51,22q-1.95,14.26-4.23,28.48a63,63,0,0,1-2.14,10.4c0-5.69,1.58-11.18,2.32-16.77.95-7.13,2.13-14.22,3.16-21.34q1.4-9.74,2.67-19.48C350.13,424.07,350.09,423,350.13,421.86Z" transform="translate(-59.12 -118.75)"/><path class="cls-119" d="M337.41,509.3c0,5.52-1.61,10.8-2.4,16.2-.87,6-2.16,12-3.26,18l-.46-.54c.93-5.75,1.84-11.49,2.8-17.23.91-5.47,1.87-10.94,2.83-16.4,0-.24.3-.44.46-.66Z" transform="translate(-59.12 -118.75)"/><path class="cls-121" d="M331.29,543l.46.54q-1.92,10.37-3.84,20.74c0,.13-.27.21-.4.31l-.61,0c1.69-6.62,2.5-13.41,3.83-20.1C330.84,543.9,330.78,543.33,331.29,543Z" transform="translate(-59.12 -118.75)"/><path class="cls-119" d="M326.9,564.53l.61,0c-.48,6.16-1.81,12.18-2.93,18.23-1.26-3.26.73-6.21.94-9.33S326.42,567.5,326.9,564.53Z" transform="translate(-59.12 -118.75)"/><path class="cls-122" d="M341.89,482.7c-.3,5.59-1.51,11.06-2.39,16.57H339A81,81,0,0,1,341.89,482.7Z" transform="translate(-59.12 -118.75)"/><path class="cls-123" d="M339,499.28h.48c-.84,3.32-.56,6.86-2.09,10l0-.63A30.29,30.29,0,0,1,339,499.28Z" transform="translate(-59.12 -118.75)"/><path class="cls-117" d="M366.78,197.36c-.39.88-1.12.48-1.75.46,0-.16,0-.31,0-.47a3.15,3.15,0,0,0,1.14-2.07q.46-10.56,1.09-21.13c.69-11.6,1.47-23.2,2.15-34.8.14-2.3.07-4.6.05-6.9a6.74,6.74,0,0,1,1-4.18q-1,19-2,38c-.4,7.52-.83,15-1.25,22.56C367.1,191.71,366.94,194.53,366.78,197.36Z" transform="translate(-59.12 -118.75)"/><path class="cls-124" d="M249.45,155.35c-.27.48-.76.53-1.22.62-7.57-.4-15.12-1-22.73-.14-5.26.62-10.44,1.54-15.63,2.56-.79.16-1.61.23-2.41.34l0-.62c5.8-1.27,11.61-2.71,17.52-3.1a124.16,124.16,0,0,1,21.47.14C247.43,155.26,248.44,155.29,249.45,155.35Z" transform="translate(-59.12 -118.75)"/><path class="cls-125" d="M365,197.35c0,.16,0,.31,0,.47l-13.28,1.66-.56-.48A66.42,66.42,0,0,1,365,197.35Z" transform="translate(-59.12 -118.75)"/><path class="cls-126" d="M207.44,158.11l0,.62a58.71,58.71,0,0,1-9.94,3.27c1.6-2.05,4.2-1.8,6.29-2.74A34.05,34.05,0,0,1,207.44,158.11Z" transform="translate(-59.12 -118.75)"/><path class="cls-22" d="M416.6,153.21c2.57,1.29,4.85,2.44,7.15,3.56a2,2,0,0,1,1,2.07c0,8.1.35,16.23-.11,24.3-.56,9.68-1.12,19.36-2,29-.83,9.39-1.89,18.72-3.43,28a7,7,0,0,1-2.1,4.35c-1.33,1.21-3,2.16-4.47,1.25a4.77,4.77,0,0,1-2.26-4.7c1-7,2.21-13.89,3.09-20.86.63-5.08,1-10.2,1.27-15.32.52-10.26.93-20.53,1.32-30.79C416.35,167.32,416.05,160.52,416.6,153.21Z" transform="translate(-59.12 -118.75)"/><path class="cls-127" d="M304.2,384.84a3.74,3.74,0,0,0-1.15,2.29c-.15.56.16,1.68-1.11,1.45a109.38,109.38,0,0,0,4.68-22.26,76.92,76.92,0,0,0-4.76-35.11l-3.76-8.29c1.16-.57,1.12.57,1.37,1.06a73.27,73.27,0,0,1,8.16,30.25C308.17,364.68,306.68,374.79,304.2,384.84Z" transform="translate(-59.12 -118.75)"/><path class="cls-128" d="M301.86,331.21a76.92,76.92,0,0,1,4.76,35.11,109.38,109.38,0,0,1-4.68,22.26l-.68,1.18-.38-.54c2.36-7,4.33-14.06,4.84-21.36.79-11.26.49-22.5-3.4-33.34C302,333.5,300.9,332.45,301.86,331.21Z" transform="translate(-59.12 -118.75)"/><path class="cls-129" d="M220.16,223.91c-5,9.62-6.8,19.72-4.51,30.43a16.48,16.48,0,0,1,.16,2.73c-1.58-2-1.35-4.53-1.58-6.78a44,44,0,0,1,4.8-25.77C219.24,224.13,219.35,223.31,220.16,223.91Z" transform="translate(-59.12 -118.75)"/><path class="cls-130" d="M256.15,190.7l-.61,0c-8.81-.14-17.51.54-25.89,3.56-.63.23-1.21.47-1.73-.17,8.89-3.58,18.16-4.4,27.62-3.87C255.75,190.25,256,190.54,256.15,190.7Z" transform="translate(-59.12 -118.75)"/><path class="cls-131" d="M273.16,204a43.36,43.36,0,0,0-25.32-1.69.72.72,0,0,1-.26-.08,3.14,3.14,0,0,1-.32-.31,38.14,38.14,0,0,1,4.43-1c7.23-.8,14.37-.57,21.21,2.32.16.06.36.15.41.28S273.22,203.89,273.16,204Z" transform="translate(-59.12 -118.75)"/><path class="cls-132" d="M247.39,290.73c4.82,1.45,9.64,2.89,14.45,4.37,1.8.56,3.55,1.25,5.31,1.87v.5l-19.61-6a.58.58,0,0,1-.38-.31C247.14,291,247.3,290.88,247.39,290.73Z" transform="translate(-59.12 -118.75)"/><path class="cls-133" d="M215.77,257c2.11,4.38,3.46,9.12,6.08,13.26a2.68,2.68,0,0,1-.64.18C219,266.15,216.18,262.06,215.77,257Z" transform="translate(-59.12 -118.75)"/><path class="cls-134" d="M300.88,389.22l.38.54a79.46,79.46,0,0,1-6,12.72c-.44-.36-.33-.75-.12-1.2C297.06,397.26,299,393.24,300.88,389.22Z" transform="translate(-59.12 -118.75)"/><path class="cls-135" d="M267.15,297.47V297a43.41,43.41,0,0,1,9.37,4.49c-1.6.56-2.6-.77-3.84-1.29C270.79,299.38,269,298.38,267.15,297.47Z" transform="translate(-59.12 -118.75)"/><path class="cls-136" d="M285.45,307.93A42.33,42.33,0,0,1,291.5,314,12.74,12.74,0,0,1,285.45,307.93Z" transform="translate(-59.12 -118.75)"/><path class="cls-137" d="M243.36,203.91l-7.12,3.42C237.06,205.59,241.29,203.56,243.36,203.91Z" transform="translate(-59.12 -118.75)"/><path class="cls-1" d="M263.14,210.61a16.42,16.42,0,0,1,16.74,16.6,16.83,16.83,0,1,1-33.65.31A17,17,0,0,1,263.14,210.61Z" transform="translate(-59.12 -118.75)"/><path class="cls-100" d="M542.53,311.27H543c1.2,7.08,2.58,14.13,3.56,21.24a196.88,196.88,0,0,1,1.82,37.43c-.19,3.54-.58,7.07-.76,10.61a11.82,11.82,0,0,1-.74,3.69c0-2.23-.06-4.47.11-6.7a225.56,225.56,0,0,0,0-31.84c-.36-5.94-1-11.83-1.84-17.7-.66-4.69-1.71-9.32-2.54-14A19.4,19.4,0,0,1,542.53,311.27Z" transform="translate(-59.12 -118.75)"/><path class="cls-99" d="M498.29,370.44h-.46c3.15-13.71,7-27.24,10.68-40.82,1.71-6.32,3.56-12.59,5.35-18.89l.5.59c-2.28,8.36-4.59,16.72-6.82,25.1-2.92,10.94-5.79,21.89-8.69,32.83A7.24,7.24,0,0,1,498.29,370.44Z" transform="translate(-59.12 -118.75)"/><path class="cls-138" d="M472.86,514.76c0-.79-.08-1.58-.11-2.37.4-2.7-.43-5.48.57-8.14,1.61-12.36,2.85-24.78,5.16-37.05H479c-.79,6-1.59,11.9-2.36,17.86-.7,5.51-1.27,11-2.1,16.52C473.82,506,474.14,510.46,472.86,514.76Z" transform="translate(-59.12 -118.75)"/><path class="cls-139" d="M541.89,416.33h-.46c1-5.39,1.89-10.8,2.9-16.18a85.68,85.68,0,0,0,1.52-10.57c0-.56.06-1.11.62-1.43C546.24,397.75,544.07,407,541.89,416.33Z" transform="translate(-59.12 -118.75)"/><path class="cls-140" d="M479,467.21h-.47c.36-2.3.64-4.62,1.11-6.9.27-1.34,1.64-1.49,2.69-1.94C479.75,460.78,480,464.24,479,467.21Z" transform="translate(-59.12 -118.75)"/><path class="cls-141" d="M253.37,468.42l8.66-.21,1.79.31C260.31,468.61,256.82,469.39,253.37,468.42Z" transform="translate(-59.12 -118.75)"/><path class="cls-142" d="M362.84,253.77l.56.6c0,13.93-1.23,27.82-1.69,41.73a.81.81,0,0,1-.53.85l-.54-.6c.36-5.63.77-11.26,1.05-16.89C362.12,270.9,362.46,262.33,362.84,253.77Z" transform="translate(-59.12 -118.75)"/><path class="cls-143" d="M323,214c0-.16,0-.32,0-.48,6.64-.73,13.28-1.51,19.92-2.17,1.82-.18,3.66,0,5.49,0a91,91,0,0,1-9.63,1.45C333.51,213,328.32,214.24,323,214Z" transform="translate(-59.12 -118.75)"/><path class="cls-144" d="M351.72,210.6c4.06-1.42,8.37-1.43,12.56-2.17,2.23-.39,4.49-1,6.81-.48C364.68,209.2,358.29,210.57,351.72,210.6Z" transform="translate(-59.12 -118.75)"/></svg>